<svg xmlns="http://www.w3.org/2000/svg" viewBox="0 0 758.66 681.97"><defs><style>.cls-1{fill:#e2e2e2;}.cls-2{fill:#b7b7b7;}.cls-3{fill:#898989;}.cls-4{fill:#494d55;}.cls-5{fill:#efefef;opacity:0.6;}.cls-6{fill:#e12733;}.cls-7{fill:#aeaeae;}.cls-8{fill:#aa2328;}.cls-9{fill:#818f9c;}.cls-10{fill:#b63a3a;}.cls-11{fill:#a6a6a6;}.cls-12{fill:#606060;}.cls-13{fill:#ffa158;}.cls-14{fill:#b53a3a;}.cls-15{fill:#3f76ab;}.cls-16{fill:#ffbb7d;}.cls-17{fill:#3c3c3b;}.cls-18{fill:#eaeaea;opacity:0.5;}.cls-19{fill:#565656;}.cls-20{fill:#010000;}.cls-21{fill:#1d1d1b;}.cls-22{fill:#e05a00;}.cls-23{fill:#ff8723;}.cls-24{fill:#fff;}.cls-25{fill:#fcaf75;}.cls-26{fill:#fc9e62;}.cls-27{fill:#fcb075;}.cls-28{fill:#2f4b66;}.cls-29{fill:#3f668a;}.cls-30{fill:#dfdd44;}.cls-31{fill:#a0a0a0;}.cls-32{fill:#fbaf75;}.cls-33{fill:#ff8522;}</style></defs><title>andamio</title><g id="Layer_2" data-name="Layer 2"><g id="complete"><path class="cls-1" d="M758.66,90.29s-136,93.83-232.82,96.54S275.71-25.76,190.94,78.13C77.28,217.44-32.57,132.5,16.94,314.61,57,461.93-70.58,536.76,62,649.28,182,751.09,450,582.81,542.17,580S757.63,681.35,757.63,681.35Z"/><polygon class="cls-2" points="208.88 601.3 48.2 509.23 389.98 311.19 548.93 404.13 208.88 601.3"/><polygon class="cls-3" points="73.91 494.33 81.56 489.89 241.8 582.21 234.11 586.67 73.91 494.33"/><polygon class="cls-3" points="103.44 477.24 111.1 472.8 271.34 565.11 263.65 569.58 103.44 477.24"/><polygon class="cls-3" points="129.51 462.07 137.17 457.63 297.41 549.95 289.72 554.41 129.51 462.07"/><polygon class="cls-3" points="157.66 445.79 165.32 441.35 325.56 533.66 317.87 538.13 157.66 445.79"/><polygon class="cls-3" points="186.95 428.8 194.61 424.36 354.84 516.67 347.15 521.13 186.95 428.8"/><polygon class="cls-3" points="216.37 411.72 224.02 407.28 384.26 499.59 376.57 504.06 216.37 411.72"/><polygon class="cls-3" points="242.32 396.68 249.98 392.24 410.21 484.55 402.52 489.01 242.32 396.68"/><polygon class="cls-3" points="271.85 379.55 279.5 375.11 439.74 467.42 432.05 471.88 271.85 379.55"/><polygon class="cls-3" points="300.04 363.22 307.7 358.78 467.94 451.09 460.25 455.56 300.04 363.22"/><polygon class="cls-3" points="328.89 346.48 336.54 342.04 496.78 434.35 489.09 438.82 328.89 346.48"/><polygon class="cls-3" points="355.58 331.04 363.24 326.61 523.48 418.92 515.79 423.38 355.58 331.04"/><polygon class="cls-4" points="208.88 601.3 208.88 613.09 48.2 520.06 48.2 509.23 208.88 601.3"/><polygon class="cls-4" points="548.93 415.08 208.88 613.09 208.88 601.3 548.93 404.13 548.93 415.08"/><ellipse class="cls-5" cx="358.29" cy="399.83" rx="80.41" ry="48.55"/><path class="cls-6" d="M128.3,679,382,532s3.33-8.1-5.21-9.9L112.18,675.34Z"/><polygon class="cls-7" points="72.29 278.37 349 240.51 349 234.15 70.3 274.02 72.29 278.37"/><polygon class="cls-8" points="46.23 634.82 46.23 277.07 58.38 274.02 58.38 646.14 46.23 634.82"/><polygon class="cls-8" points="375.89 632.01 375.89 515.86 389.15 508.45 389.15 627.13 375.89 632.01"/><polygon class="cls-8" points="542 580 542.11 177.93 553.03 177.71 553.03 580.02 542 580"/><polygon class="cls-9" points="542.11 224.35 542.11 210.84 406.87 131.28 406.87 144.8 542.11 224.35"/><polygon class="cls-9" points="542.17 362.1 542.11 348.54 377.86 252.09 377.86 264.77 542.17 362.1"/><polygon class="cls-9" points="542.11 499.78 542.11 485.97 484.48 452.61 472.13 459.8 542.11 499.78"/><path class="cls-10" d="M376,535.37V516.52s7.11,4.12,13.19,0V536.1S379.18,541.18,376,535.37Z"/><path class="cls-9" d="M473.37,596.34l13.77-4.51-98.7-58.2s-7.91-.15-6.08,9.42Z"/><polygon class="cls-11" points="84.23 664.3 144.5 575.82 148.34 578.04 88.5 666.46 84.23 664.3"/><polygon class="cls-11" points="280.52 663.42 361.1 544.06 370.65 538.04 288.02 661.3 280.52 663.42"/><path class="cls-12" d="M325.8,649.56,540.91,330.07s3.73-1.6,4.44,2.12L333.57,647Z"/><polygon class="cls-11" points="60.33 431.09 143.4 454.07 148.16 451.31 65.58 428.05 60.33 431.09"/><polygon class="cls-11" points="60.39 417.35 72.15 410.71 188.78 289.96 188.78 283.17 60.39 417.35"/><polygon class="cls-11" points="72.11 278.24 82.12 272.42 315.34 240.3 315.34 245.19 72.11 278.24"/><polygon class="cls-11" points="317.66 327.81 289.04 371.57 279.26 375.29 307.89 333.4 317.66 327.81"/><path class="cls-10" d="M542,344.33l.14-18.47s4.29,5,11.09,0v17.89A10.11,10.11,0,0,1,542,344.33Z"/><polygon class="cls-6" points="58.38 432.23 325.99 277.11 325.99 264.52 58.38 418.52 58.38 432.23"/><polygon class="cls-6" points="58.38 273.02 58.38 286.5 285.22 153.86 285.22 139.92 58.38 273.02"/><path class="cls-13" d="M58.38,273.63c0,1.77-2.56,3.19-6,3.19s-6.19-1.42-6.19-3.19,2.77-3.18,6.19-3.18S58.38,271.87,58.38,273.63Z"/><path class="cls-13" d="M553,177.71c0,1.67-2.41,3-5.8,3s-5.12-1.24-5.12-2.91,1.73-3.14,5.12-3.14S553,176,553,177.71Z"/><path class="cls-14" d="M46.28,439.86v-18.2s6.62,5,12.1,0v17.55S51.83,444.76,46.28,439.86Z"/><path class="cls-14" d="M46.28,292.73l-.06-19.1s5.33,5.16,12.15-.15v19.2S52.08,297.1,46.28,292.73Z"/><path class="cls-10" d="M542.11,197.86v-20s4,5.55,10.92,0v20S548.14,202.77,542.11,197.86Z"/><path class="cls-15" d="M394.68,79.63s-25.5-30.14-49.36-28.5c-5.3.37-23.26-.88-21.64,11C325.42,74.9,320.49,91.9,311.12,96,304.53,98.81,394.68,79.63,394.68,79.63Z"/><path class="cls-16" d="M377.35,374S361,299,361,273.85s27.43,3,27.43,3,9.21,38.52,2.82,98.46c0,0,5.23,22-7.81,22.36S377.35,374,377.35,374Z"/><path class="cls-16" d="M315.71,255.43s-1.31,34.77,4.89,94.71l-16.35,23.3s19.73,4.7,32.13-20.67c0,0,3-61.45,11.47-79.48S315.71,255.43,315.71,255.43Z"/><path class="cls-17" d="M313.68,262.36s-4.58-14.77,3.3-81.74,0-.57,0-.57l72.85-15.2S400.58,170,394,211s-2.58,70.12-2.58,70.12S345.66,296.06,313.68,262.36Z"/><ellipse class="cls-18" cx="249.15" cy="509.54" rx="82.36" ry="47.03"/><path class="cls-19" d="M373.66,284.21,370.74,172.4h0l19.09-7.55S400.58,170,394,211s-2.58,70.12-2.58,70.12Z"/><path class="cls-20" d="M377,375a41.87,41.87,0,0,0,0,32.13c3.81,9.33,10.22,8.65,14.1,0,3.65-8.15,4.88-22.55,0-32.13,0,0,1.87,22.73-7.63,22.55C374.3,397.31,377,375,377,375Z"/><path class="cls-20" d="M310.69,364.27c-.19.56-13,12.56-14.24,21.39,0,0,7.61,5.63,24.52-7.52,0,0,2.07-5.07,9.4-7.89v1.69s7.33-4.32,8.46-7.7l-2.07-13.16s-15,18-24.4,19.73C303.94,372.38,310.69,364.27,310.69,364.27Z"/><path class="cls-21" d="M344.53,47.57S349,50.43,352.15,50s6.23,3.13,6.23,3.13-.9-10.05,4.92-10.24c0,0,4.93.2,2.76,6.61,0,0,.39,8.58,7.39,11.94a32,32,0,0,1,11.15,9.17s7-22.78-16-29.19c0,0,4.54-8.39-2-12.53C366.65,28.93,346.3,28.14,344.53,47.57Z"/><path class="cls-22" d="M312.75,43.17V37.84l3.34-6.7V25.69l4.22-5S327.25,2.5,336.92.52A27.72,27.72,0,0,1,354.4,2.87s8.93,4.84,11.65,11.78l5,6.08.62,7.19-1.73,1.86S364.69,43.41,343,48.13a35.35,35.35,0,0,0-9.92,3.09S320.56,50.36,312.75,43.17Z"/><path class="cls-23" d="M330.44,27.47s8.65-26.08,25.22-22.42C355.66,5.05,334.83-4.09,330.44,27.47Z"/><path class="cls-23" d="M330.44,12.73c-.12.42,5.7-8.9,11.38-10.12C341.82,2.61,333.61,1.27,330.44,12.73Z"/><path class="cls-23" d="M361.87,10.29s-6.32-4.68-17.78,9.26C344.09,19.55,349.81,3.71,361.87,10.29Z"/><path class="cls-23" d="M317.83,38.7l-.75-12.27-.74,11.65s-1-1.86-1-1.48-1.24,5.7-1.24,5.7,7.69,7.07,18.1,7.07a93.93,93.93,0,0,1,14.88-3.48c8.8-1.36,18.34-9.54,21.07-14l1.37-3.22L368,23.21l1.49-3-1.37-1.36-2,4,1.61,5.58s-2.11,6.08-5.33,7l-5.7,4.46s-5,3.72-6.82,3.47l-.87-4.46,6.2-3.72-.87-1-6.94,4.21.74,5.33s-11.4,1.86-13.26,2.85c0,0-1-9.79.74-13.88,0,0-11.53-3.47-15.25-6.45l-.37,2s8.23,5.39,13.67,5.39l-1.15,13.2S317,42.92,317.83,38.7Z"/><path class="cls-24" d="M261.32,105.32s21.28,35.07,26.19,87.43L439.22,162.6s-11.93-83.92-19.87-93Z"/><path class="cls-25" d="M326.57,49.86s5.63,21,16.9,17.16c0,0,3.16,19.36,17.59,6.51s7.22-15.94,7.22-15.94l-.76-5.13s1.14-11.84-6.2-9.24c0,0-3.9,2.53-3.08,9.69,0,0-3.25-3.68-5.85-3.11s-7.15-3.42-7.15-3.42Z"/><path class="cls-26" d="M343.47,67s3.16,16.51,12.15,7.65c3.71-3.65,4.37-6.2,3.92-20.44C359.54,54.23,349.29,69,343.47,67Z"/><path class="cls-27" d="M429.78,108.6s8.73,2.33,5.53,7a2.09,2.09,0,0,1,.7,2.45,3.22,3.22,0,0,1,.87,3.9,2.42,2.42,0,0,1,.29,2.64s1.33,1.57.27,2.83-6.66,4.71-6.66,4.71-2.83.69-2.39-1.88c0,0-2.83-1-2.2-3,0,0-2.2-.38-1.69-2.14,0,0-2.27-1.32-1.07-3,0,0-1.89-2.33.19-3.84s6.63-4.9,6.63-4.9Z"/><path class="cls-25" d="M274.58,134.87s.65,6.47,9.88,3.53c0,0,4.53.41,2.21,3.49,0,0,2.71,1.39.66,3.13a1.93,1.93,0,0,1,.21,3.19,1.75,1.75,0,0,1-.41,2.85s1.22,2-1.28,2.38-7.19,1.33-9.42-1.51a2.88,2.88,0,0,1-.91-2c-.06-1.16.05-1.7,0-2.26a5.61,5.61,0,0,0-1.29-3,4.66,4.66,0,0,1-1-3.54c.06-1.51-1.09-5.07,1.13-6.87Z"/><path class="cls-21" d="M231.7,506.26c0,.52,2.36,18.1,2.36,18.1s-15.08,9.19-29.38-2.09v-3.81s-15.62,3.41-24.67-9.84-.66-20.78,25.58-14.3C224.93,499.09,231.7,506.26,231.7,506.26Z"/><path class="cls-21" d="M280,486.45c-.14.39,1.05,15.22,1.05,15.22s-15.49,11.28-29.53-5.51l.4-4.29s-8.4,6.12-21.78-9.62-.39-16.93,21.38-13.38S280,486.45,280,486.45Z"/><path class="cls-28" d="M233.57,291.28,197,299.55s-17.13,27.76,3.71,104.91L202.34,500a23.14,23.14,0,0,0,23.53,12.2c17-1.79,2.89-130.71,2.89-130.71Z"/><path class="cls-28" d="M249.32,472.79s5.87,21.08,30.69,13.34c0,0,10.06-92.08-5.78-112.37,0,0,2.27-77.41-2.65-89.82l-42.82,40.44s10.41,51,15.22,67.8C244,392.18,244.78,423.41,249.32,472.79Z"/><path class="cls-29" d="M207.68,507.22s11.74,11.48,25.89,1.34c0,0,12.81-90.22,0-111,0,0,9.34-59,7.47-68.34,0,0,40-4.53,30.16-47l-56,21.63s-29.63,18.15-4,104.63C211.15,408.46,202.07,336.39,207.68,507.22Z"/><polygon class="cls-25" points="178.35 226.43 172.92 221.98 158.6 230.87 151.22 237.6 167.93 246.32 179.43 236.73 178.35 226.43"/><path class="cls-29" d="M177.33,223.87l26.89-10.22,5.24,18.83-32.13,6.72S174.24,231,177.33,223.87Z"/><path class="cls-30" d="M187.11,300.43s56.57,41.54,94.4-24l3.88-91.74s-1.94-33.58-26.51-25.27l-7.95,2.47s6.41,12.1-32.35,18.56c0,0-25.63,10.78-28.28,16.26S192.24,179.71,187.11,300.43Z"/><path class="cls-25" d="M151.22,257.13s-11.72-5.64-19.09-4.77-19.95-11.26-18.23-15.63c2.39-6.07,3.79-7.81,10.69-8s7.75-1.3,12.53,5.21,14.1,8.91,14.1,8.91Z"/><path class="cls-29" d="M190.91,250s-2.15-8.47,2.56-22.72c0,0-11.43-40.19,19.08-39s14.25,60.09,14.25,60.09-5.64,27.29-14.78,28.23-35.22-1.75-65.74-18c0,0-.13-18.82,0-18.41S167.39,238.25,190.91,250Z"/><polygon class="cls-31" points="97.75 187.04 139.83 166.2 182.04 217.42 143.86 246.32 141.98 247.53 96.41 188.22 97.75 187.04"/><polyline class="cls-24" points="97.75 187.04 139.83 166.2 182.04 217.42 143.86 246.32"/><path class="cls-32" d="M205.77,143.12s-3,19.54,8.31,22.59c0,0,6.76.12,5.63,14.51s34.14-14,34.14-14-6.41-3.45-7.71-7.46,6.11-27.34,1.9-28.35S213.68,105.75,205.77,143.12Z"/><path class="cls-9" d="M211.28,554.41v-14.9L58.79,451.2s-7.62-.29-6.2,8.73Z"/><polygon class="cls-8" points="211.28 678.43 211.28 369.44 223.76 369.44 223.76 676.45 211.28 678.43"/><path class="cls-13" d="M223.76,369.44c0,2-2.74,3.56-6.13,3.56s-6.35-1.59-6.35-3.56,3-3.56,6.35-3.56S223.76,367.47,223.76,369.44Z"/><path class="cls-14" d="M211.08,388.27V369.44s5.53,7.1,12.68-.41v19.24A9.72,9.72,0,0,1,211.08,388.27Z"/><path class="cls-10" d="M211.28,535.24V517.8s5.08,4.31,12.4-.63l.08,17.77S217.52,538.54,211.28,535.24Z"/><path class="cls-9" d="M211.28,417V403.22L57.67,312.92s-7.7,1.69-5.26,9.86Z"/><path class="cls-6" d="M223.76,382.86,543.82,196.13s7.23-10.57-2.91-12.82L223.65,368.77Z"/><path class="cls-6" d="M223.76,529,545.45,340.91s3.6-9.27-5.76-9L223.76,515.28Z"/><path class="cls-20" d="M252.9,135.14s0,21.14-6.57,25.25-13.75,8.62-25.66,1.85c0,0-2.87-2.47-1-7s-.83-9.86-3.08-8.21-3.7.34-4.31,3.66c0,0-1.24-2.23,2.66-5.31S225.39,125.7,252.9,135.14Z"/><path class="cls-22" d="M198.35,117.67,189,124s1.4,32.46,45.78,24.25c0,0,16.63-3,20.23-12.13,0,0,5.31-11.92-18-29.65A47.51,47.51,0,0,0,209.87,109a32.89,32.89,0,0,1-3.8.4l-7.32,5.41Z"/><path class="cls-33" d="M228.91,106.25c-.36,0,11.72,4.61,14.92,13.22C243.83,119.47,241.93,107.45,228.91,106.25Z"/><path class="cls-33" d="M211.48,110.06s18.83-8.22,30,22.44C241.43,132.5,233.41,97.34,211.48,110.06Z"/><path class="cls-33" d="M208.57,115.17S221.79,112,233,132.5C233,132.5,223.7,106,208.57,115.17Z"/><path class="cls-33" d="M208.57,110.66c-.5.4-8.62,17.73-8.62,17.73s4.61.6,3.11,6.81c0,0,4.81,6.61,11.82,9.52v1.6s-22.14-9-19.93-22.84l4.5-5.11.61-3.3,7.41-4.41Z"/><path class="cls-33" d="M220.8,146.54v-4l-4.44-2V139.1l12.12,3-.6,4.44a39.1,39.1,0,0,0,23.63-6.62s-4.8,9.5-30.71,7.94Z"/><path class="cls-4" d="M214.88,529.18l250.61,69.87,7.88-2.71L214.88,523.19S212.22,524.19,214.88,529.18Z"/><path class="cls-4" d="M219.23,521.53,542.49,185.61s2.6-1,3,3.32L221.53,526.19S216.78,524.08,219.23,521.53Z"/><path class="cls-4" d="M222.7,375.29l319.57-43.75s3.84-.7,3.08,4.19L219.68,380.88S217.52,376,222.7,375.29Z"/><path class="cls-9" d="M201.09,679.76,58.51,588.06a9.13,9.13,0,0,0-5.91,9.29l131.08,84Z"/></g></g></svg>