<svg xmlns="http://www.w3.org/2000/svg" xmlns:xlink="http://www.w3.org/1999/xlink" viewBox="0 0 828.53 632.18"><defs><style>.cls-1{fill:#e2e2e2;}.cls-2{fill:#3bb4c4;}.cls-3{fill:#fff;}.cls-4{fill:#54cfdf;}.cls-5{fill:#66e2f1;}.cls-6{fill:#dd5865;}.cls-7{fill:#ea8191;}.cls-8{opacity:0.74;}.cls-9{fill:#494d55;}.cls-10{fill:url(#linear-gradient);}.cls-11,.cls-12,.cls-15,.cls-22{fill:none;}.cls-11,.cls-12{stroke:#4b4780;}.cls-11,.cls-12,.cls-15{stroke-linecap:round;stroke-linejoin:round;}.cls-11{stroke-width:0.98px;}.cls-12{stroke-width:0.68px;}.cls-13{fill:#4b4780;}.cls-14{fill:#e12733;}.cls-15{stroke:#fff;stroke-width:1.67px;}.cls-16{fill:#221d4b;}.cls-17{fill:#da3678;}.cls-18{fill:#f3377b;}.cls-19{fill:#dd3277;}.cls-20{fill:#f1ad99;}.cls-21{fill:#fcb8a0;}.cls-22{stroke:#f3377b;stroke-miterlimit:10;stroke-width:1.05px;}.cls-23{fill:#39326a;}.cls-24{fill:#47437d;}.cls-25{fill:#aa2328;}</style><linearGradient id="linear-gradient" x1="707.36" y1="423.71" x2="247.95" y2="528.72" gradientUnits="userSpaceOnUse"><stop offset="0" stop-color="#fff"/><stop offset="0" stop-color="#e12733"/><stop offset="1" stop-color="#aa2328"/></linearGradient></defs><title>Asset 73</title><g id="Layer_2" data-name="Layer 2"><g id="complete"><path class="cls-1" d="M828.53,40.5s-136,93.83-232.81,96.55S345.59-75.54,260.82,28.35C147.16,167.65,37.3,82.71,86.81,264.82,126.86,412.14-.71,487,131.89,599.49c120,101.82,388-66.46,480.15-69.28S827.5,631.57,827.5,631.57Z"/><path class="cls-2" d="M587.46,423c-20.27-3.57-42.21-62.64-4.46-82.44s50.47-30.28,58.36-76.39,34.73-24.22,28.68,2.77,34.25,23.63,42.66,36.5c14.57,22.3-17.66,25.87-36.11,38.56s14.48,21.38,1.38,42.86S622,429,587.46,423Z"/><path class="cls-3" d="M585.38,422.39c2.59-4.09,5-8.29,7.5-12.44l7.52-12.43c5-8.28,10.2-16.48,15.37-24.67s10.52-16.28,16-24.28,11-15.93,17-23.54l-4.17,6-4.08,6c-2.71,4-5.41,8-8,12.09q-8,12.14-15.76,24.4c-5.25,8.13-10.4,16.34-15.59,24.51S590.87,414.4,585.38,422.39Z"/><path class="cls-3" d="M606.31,388.91c2-.61,4.07-1.14,6.11-1.72l6.14-1.59c4.09-1.06,8.2-2,12.32-3s8.24-1.89,12.38-2.74l6.21-1.27c2.08-.39,4.15-.81,6.24-1.16-2,.61-4.07,1.14-6.11,1.72l-6.14,1.59c-4.09,1.06-8.2,2-12.32,3s-8.24,1.89-12.38,2.74l-6.21,1.27C610.47,388.14,608.4,388.56,606.31,388.91Z"/><path class="cls-3" d="M626.39,357.49c-.3-4.94-.23-9.88-.08-14.81s.46-9.86,1.09-14.78c.3,5,.24,9.88.08,14.82S627,352.58,626.39,357.49Z"/><path class="cls-4" d="M593.79,452.57s-11.37-22.2,8-36.43,28-32.52,16.93-49.32-39.51-6.33-51.53-14.37-6.86-25.23-16.71-43.82c-13.22-24.93-38.79-18.35-44.77-14.5s-16.59,15.6-2.71,38.22,3.65,30.54-7.39,48.29,8.31,24.64,39.73,30.64,36.85,44.59,36.85,44.59l21.56-3.3"/><path class="cls-3" d="M585.8,474.88a169.64,169.64,0,0,0-1.42-22Q583,442,580.69,431.24a249.76,249.76,0,0,0-13-41.94c-1.32-3.42-2.84-6.75-4.29-10.11s-3.07-6.66-4.79-9.9c-3.25-6.56-7-12.88-10.75-19.17-2-3.08-3.87-6.23-6-9.23l-3.1-4.54-3.25-4.44c-2.1-3-4.44-5.85-6.67-8.76-1.11-1.47-2.33-2.84-3.5-4.26l-3.51-4.24c2.45,2.73,5,5.41,7.33,8.23s4.77,5.61,7,8.56l3.36,4.38,3.2,4.5c2.18,3,4.14,6.09,6.19,9.15,4,6.22,7.66,12.59,11,19.16,1.75,3.25,3.27,6.61,4.88,9.92s3,6.72,4.39,10.15c2.76,6.84,5.22,13.8,7.32,20.86s4,14.2,5.38,21.43C584.7,445.44,586.48,460.18,585.8,474.88Z"/><path class="cls-3" d="M572.51,402.69a55.29,55.29,0,0,0-13-10.24,74.24,74.24,0,0,0-15.1-6.59,78.64,78.64,0,0,0-8-1.93l-2-.4a17.68,17.68,0,0,0-2-.33l-4.11-.48c-.69-.07-1.38-.2-2.07-.22l-2.07-.09-4.15-.21c-2.77-.06-5.55.1-8.34.07,1.38-.17,2.77-.33,4.15-.47s2.78-.33,4.18-.38l4.19-.06h2.11c.7,0,1.39.09,2.09.13l4.2.33a18.25,18.25,0,0,1,2.08.29l2.08.34a77.64,77.64,0,0,1,8.22,1.9,63.67,63.67,0,0,1,15.28,7.06A45.06,45.06,0,0,1,572.51,402.69Z"/><path class="cls-3" d="M577.31,416.5a42.08,42.08,0,0,1-1.23-15,37.53,37.53,0,0,1,4.4-14.55,35.13,35.13,0,0,1,4.48-6.21,34.75,34.75,0,0,1,5.75-5,42.26,42.26,0,0,1,13.77-6.14,54.2,54.2,0,0,0-13,7.14,36.26,36.26,0,0,0-9.58,11,40.51,40.51,0,0,0-4.56,13.92,52.19,52.19,0,0,0-.52,7.4A47.9,47.9,0,0,0,577.31,416.5Z"/><path class="cls-5" d="M661.84,441.11c36,9.1,36.87-22.27,14.81-39.76C662.87,390.42,691,384.58,701.91,374c18.73-18.26-11.3-41.22-26.88-25.22S649.79,369.64,638.44,371s-43.37,1.74-40.61,22.11c1.72,12.7-9.26,23.55-7.76,36.27C623.36,418.16,643.09,436.36,661.84,441.11Z"/><path class="cls-3" d="M590.07,429.42c3.37-2.71,6.83-5.31,10.28-7.92s7-5.1,10.51-7.62c7.06-5,14.27-9.8,21.51-14.54s14.71-9.14,22.25-13.41c3.81-2.06,7.57-4.19,11.45-6.13s7.77-3.81,11.71-5.6c-3.79,2.09-7.64,4.05-11.37,6.25s-7.49,4.3-11.22,6.48c-7.4,4.45-14.76,9-22,13.67S618.7,410,611.51,414.83q-5.38,3.59-10.73,7.27C597.18,424.5,593.64,427,590.07,429.42Z"/><path class="cls-3" d="M627.05,403.69c.07-2.37.28-4.7.55-7s.6-4.65,1-7,.79-4.61,1.29-6.91,1-4.58,1.7-6.84c-.07,2.36-.28,4.7-.55,7s-.61,4.65-1,7-.8,4.62-1.29,6.91S627.73,401.42,627.05,403.69Z"/><path class="cls-3" d="M617.19,410.25c8.52-.56,17-.67,25.56-.67s17,.2,25.55.82c-8.52.57-17,.68-25.56.67S625.7,410.86,617.19,410.25Z"/><polygon class="cls-6" points="628.39 488.03 575.72 488.03 563.46 435.38 640.65 435.38 628.39 488.03"/><rect class="cls-7" x="555.22" y="421.98" width="93.68" height="21.19"/><g class="cls-8"><path class="cls-3" d="M112.34,428.51c3.75-9.29,12.76-12.1,17.17-20.49,7.9-15-5.38-18.88-7-28.86-2.1-13.28,7.22-12.08,12-20.17,5.66-9.51-3.92-20.76,1.95-29.79,14.61-22.45,38.37,2.21,53.86,7.4,9.49,3.17,23.68,4.51,31.15-1.53,9.86-8,19.69-26.43,9.25-37.08-14.72-15-9.32-22.72,6.59-26.52,7-1.68,10.27-7.05,2.45-13.18,11.88,17.17-27.74,1.53-34.79,13.18-4.9,8.09,1.14,12.87,2.85,19.09,4.35,15.91-6.58,29.6-29.38,13.66-13.11-9.16-12-25.47-25.91-29.63-13-3.88-28.11,7.76-32.89,23.38-4.73,15.46-10.35,23.38-27,21.63-19.8-2.09-35.06,10.17-26.21,27.89,7.85,15.7,29.59,6.78,40.62,15.78,12.23,10,8.43,23.76-7.41,36.67-4.91,4-12.47,10-10.53,16.82,1.27,4.43,9.17,11.47,14.26,11.65Z"/></g><path class="cls-6" d="M141.64,434.7h-4.23V429a4.41,4.41,0,0,0-4.41-4.42H82.9A4.41,4.41,0,0,0,78.49,429v35a24,24,0,0,0,24,24h10.88A24,24,0,0,0,136.1,471.8h5.54a7.67,7.67,0,0,0,7.67-7.68V442.37A7.66,7.66,0,0,0,141.64,434.7Zm2.77,29.42a2.77,2.77,0,0,1-2.77,2.77h-4.42a22.71,22.71,0,0,0,.19-2.88V439.6h4.23a2.77,2.77,0,0,1,2.77,2.77Z"/><path class="cls-7" d="M131,437a32.4,32.4,0,0,0-2.54-12.45H82.9A4.41,4.41,0,0,0,78.49,429v35a23.9,23.9,0,0,0,3,11.68c.69,0,1.37.08,2.06.08C109.76,475.77,131,458.42,131,437Z"/><path class="cls-9" d="M667.34,540.82H32.88a12.29,12.29,0,0,1-12.29-12.29h0a12.29,12.29,0,0,1,12.29-12.29H667.34a12.29,12.29,0,0,1,12.29,12.29h0A12.29,12.29,0,0,1,667.34,540.82Z"/><path class="cls-10" d="M682.89,522.71H17.34A17.34,17.34,0,0,1,0,505.37H0A17.34,17.34,0,0,1,17.34,488H682.89a17.33,17.33,0,0,1,17.33,17.34h0A17.34,17.34,0,0,1,682.89,522.71Z"/><circle class="cls-6" cx="575.19" cy="157.97" r="45.02"/><circle class="cls-3" cx="575.19" cy="157.97" r="35.1"/><line class="cls-11" x1="575.19" y1="157.97" x2="575.19" y2="136.87"/><line class="cls-11" x1="575.19" y1="157.97" x2="588.09" y2="170.88"/><line class="cls-12" x1="575.19" y1="189.11" x2="575.19" y2="184.94"/><line class="cls-12" x1="590.75" y1="184.94" x2="588.67" y2="181.33"/><line class="cls-12" x1="602.15" y1="173.54" x2="598.53" y2="171.46"/><line class="cls-12" x1="606.34" y1="157.98" x2="602.15" y2="157.98"/><line class="cls-12" x1="602.15" y1="142.42" x2="598.55" y2="144.5"/><line class="cls-12" x1="590.75" y1="131.02" x2="588.67" y2="134.61"/><line class="cls-12" x1="575.19" y1="131.02" x2="575.19" y2="126.83"/><line class="cls-12" x1="561.71" y1="134.63" x2="559.62" y2="131.02"/><line class="cls-12" x1="551.82" y1="144.5" x2="548.23" y2="142.42"/><line class="cls-12" x1="548.23" y1="157.98" x2="544.06" y2="157.98"/><line class="cls-12" x1="551.84" y1="171.46" x2="548.23" y2="173.54"/><line class="cls-12" x1="561.71" y1="181.33" x2="559.62" y2="184.94"/><circle class="cls-13" cx="575.19" cy="157.97" r="2.04"/><path class="cls-14" d="M249,109.54a48.51,48.51,0,1,0-9.32,75.88,7.17,7.17,0,0,1,5.76-.69l12.26,3.65a1.23,1.23,0,0,0,1.53-1.53l-3.65-12.27a7.2,7.2,0,0,1,.7-5.77A48.5,48.5,0,0,0,249,109.54Z"/><line class="cls-15" x1="187.24" y1="122.62" x2="242.22" y2="122.62"/><line class="cls-15" x1="229.04" y1="136.77" x2="242.22" y2="136.77"/><line class="cls-15" x1="187.24" y1="136.77" x2="215.94" y2="136.77"/><line class="cls-15" x1="212.38" y1="150.91" x2="242.22" y2="150.91"/><line class="cls-15" x1="187.24" y1="150.91" x2="201.59" y2="150.91"/><line class="cls-15" x1="229.04" y1="165.06" x2="242.22" y2="165.06"/><line class="cls-15" x1="187.24" y1="165.06" x2="215.29" y2="165.06"/><path class="cls-16" d="M350.47,132.55s-4.9-21.66,15.94-40.25,53-16.9,70.71-7.21c22.89,12.57,45.36,45.83,24.82,93.34s73.57,27.89,42,92.26-86.14,19.93-105.75,46.59S310.66,274,368.68,225.16,354.87,176.49,350.47,132.55Z"/><path class="cls-17" d="M345.16,274.37c-23.81,10.15-43.53,70.5-45.37,199.24h51.32S382.29,258.55,345.16,274.37Z"/><path class="cls-18" d="M408.83,255.18c28.14-2.77,74,1.9,90.51,20.11,3.64,4,3.65,11.54,1.71,21.95C494.16,334,462.69,406.81,479.41,488H332.9s13.89-63.47,6.13-83.49c-8.88-22.9-16.56-43.59-7.82-62.72,19.9-43.54,2.08-61.57,14.69-67.86C363.26,265.29,385,257.53,408.83,255.18Z"/><path class="cls-19" d="M469.3,363c-6.13,35.56-47.31,39.95-67.95,33,0,0,30,18.18,51.7,8,0,0,5.52,17.37-2.73,72h26.94s0-.11,0-.28c-4.27-28.57-2.93-55.9.79-80.74a114.28,114.28,0,0,1,2.88-16.62s0-.1,0-.15c3.41-17.42,7.68-33.34,11.52-47.24a155.2,155.2,0,0,0,2.26-28S475.43,327.4,469.3,363Z"/><path class="cls-20" d="M470.83,439.28s-25.59,31.43-38,22.92c-16.39-11.27-29.88-11.07-40.71-4.6-11.24,6.71-15.53,18.32-15.53,18.32h87.84L490,453.79Z"/><path class="cls-18" d="M500.3,276.58s22.59,59,41.95,107.22c15.63,38.93-78.63,92-78.63,92l-15.57-20.86,54.29-60.18-33.21-70s-19.24-38.18,10-51.72C495.37,265.46,500.3,276.58,500.3,276.58Z"/><path class="cls-20" d="M428.1,197.74s-3.55,44.72,7.18,56.4c13.79,15-10.43,47.41-46.8,71.93,0,0-20.33-22.58-4.39-59.36s.49-57.56.49-57.56Z"/><path class="cls-21" d="M435.28,178.43c0,30.64-21.59,55.45-39.83,55.45s-41-20.37-44.09-58.08c-2.48-30.54,14-52.85,38.86-52.85S435.28,147.79,435.28,178.43Z"/><path class="cls-16" d="M359.28,115.77c-2.57,1.48-8.12,5.08-14.58,9.38-7.05,4.7-14.56,12.82-17.14,21.71-4.44,15.26,6.79,34.6,29.14,27.77s33-42.67,51.14-21.95c22.53,25.75,30.71,11.4,30.71,11.4S434,132,411.2,117.59C399,109.86,380.53,103.51,359.28,115.77Z"/><path class="cls-18" d="M450.32,167.4c0,10-5.91,18.09-13.2,18.09s-13.19-8.1-13.19-18.09,5.91-18.1,13.19-18.1S450.32,157.4,450.32,167.4Z"/><path class="cls-18" d="M395.59,107.07c-20.3-3.91-39.87,3.76-50.89,18.08a59,59,0,0,1,44.43-8.78c27,5.2,46.06,27.09,46.69,51.41a43.22,43.22,0,0,0,1.24-4.86C442,137.43,423.4,112.42,395.59,107.07Z"/><path class="cls-22" d="M434.25,173.3s3.68,40.91-33.92,44.79"/><path class="cls-18" d="M397.88,222.18H392a3.48,3.48,0,0,1-3.47-3.48h0a3.47,3.47,0,0,1,3.47-3.47h5.93a3.47,3.47,0,0,1,3.47,3.47h0A3.47,3.47,0,0,1,397.88,222.18Z"/><rect class="cls-23" x="266.92" y="475.77" width="224.2" height="12.25" rx="5.4" ry="5.4"/><path class="cls-24" d="M387.07,488H190a12.75,12.75,0,0,1-12-8.38L132.06,353.38a12.73,12.73,0,0,1,12-17.09H341.11a12.76,12.76,0,0,1,12,8.38l46,126.26A12.74,12.74,0,0,1,387.07,488Z"/><path class="cls-13" d="M139.48,337.12c.74,74.63,100.69,135,223.88,135q18.12,0,35.49-1.71L353.09,344.67a12.76,12.76,0,0,0-12-8.38H144A12.81,12.81,0,0,0,139.48,337.12Z"/><path class="cls-25" d="M491.3,14a35.19,35.19,0,1,1,6.76,55,5.17,5.17,0,0,0-4.17-.51L485,71.22a.89.89,0,0,1-1.11-1.11l2.65-8.9A5.24,5.24,0,0,0,486,57,35.18,35.18,0,0,1,491.3,14Z"/><circle class="cls-3" cx="496.64" cy="38.91" r="5.68"/><circle class="cls-3" cx="516.16" cy="38.91" r="5.68"/><circle class="cls-3" cx="535.67" cy="38.91" r="5.68"/><polygon class="cls-3" points="278.05 435.83 269.24 435.83 263.38 424.11 257.51 435.83 254.58 435.83 263.39 418.23 266.32 412.36 267.79 415.3 278.05 435.83"/><polygon class="cls-3" points="264.85 409.43 261.92 415.29 251.65 435.83 248.71 435.83 258.98 415.31 254.58 406.5 254.57 406.5 239.9 435.83 236.98 435.83 254.59 400.63 257.52 394.76 264.85 409.43"/></g></g></svg>