<svg xmlns="http://www.w3.org/2000/svg" viewBox="0 0 622.48 159.51"><defs><style>.cls-1{fill:#fff;}</style></defs><title>tipografíaWhite</title><g id="Layer_2" data-name="Layer 2"><g id="Layer_9_copy_2" data-name="Layer 9 copy 2"><path class="cls-1" d="M0,73.24V1H18.29Q27.74,1,33,3.35a13.88,13.88,0,0,1,7.4,7.4q2.15,5,2.14,13.07V50.05q0,8.12-2.14,13.24a14.06,14.06,0,0,1-7.36,7.54q-5.22,2.42-14.58,2.41ZM16,62.18h2.5c2.43,0,4.19-.36,5.26-1.07a4.75,4.75,0,0,0,2-3.21,30.63,30.63,0,0,0,.4-5.36V21.05a22.43,22.43,0,0,0-.49-5.17A4.32,4.32,0,0,0,23.55,13a11.27,11.27,0,0,0-5.17-.89H16Z"/><path class="cls-1" d="M52.36,73.24V1h16V73.24Z"/><path class="cls-1" d="M98.31,74.31A23.93,23.93,0,0,1,87,71.9a15.34,15.34,0,0,1-6.87-7.45q-2.33-5-2.59-13.07l13.65-2.05A32.28,32.28,0,0,0,92,56.82a8.18,8.18,0,0,0,2.14,4.11,4.81,4.81,0,0,0,3.34,1.25c1.67,0,2.75-.57,3.26-1.7a8.74,8.74,0,0,0,.76-3.57,12.91,12.91,0,0,0-2.14-7.53,33.2,33.2,0,0,0-5.8-6.2l-6.25-5.45a34.94,34.94,0,0,1-6.91-7.89,20,20,0,0,1-2.81-10.93q0-9.18,5.44-14T97.86,0a19.12,19.12,0,0,1,9.32,2,13.72,13.72,0,0,1,5.35,5.13,21,21,0,0,1,2.5,6.69,42.16,42.16,0,0,1,.76,6.74l-13.74,1.69a54.31,54.31,0,0,0-.4-5.57A7.72,7.72,0,0,0,100.36,13a3.59,3.59,0,0,0-3-1.29,3.44,3.44,0,0,0-3.25,1.87,7.69,7.69,0,0,0-1,3.75A10.57,10.57,0,0,0,95,23.86a36.85,36.85,0,0,0,5,5.31l6,5.26a40.75,40.75,0,0,1,8,9.1,22.9,22.9,0,0,1,3.26,12.58,18.63,18.63,0,0,1-2.32,9.23,17,17,0,0,1-6.56,6.56A19.91,19.91,0,0,1,98.31,74.31Z"/><path class="cls-1" d="M131.49,73.24V12.85H120.61V1h37.73V12.85H147.55V73.24Z"/><path class="cls-1" d="M164.67,73.24V1h19.9a44.28,44.28,0,0,1,12.66,1.61,15.37,15.37,0,0,1,8.34,5.75q3,4.15,3,11.73a40.17,40.17,0,0,1-.71,7.94,14.77,14.77,0,0,1-2.63,6,14.44,14.44,0,0,1-5.49,4.24l9.9,35h-16.5l-7.94-32.38h-4.55V73.24Zm16-41.57h4.46a9.61,9.61,0,0,0,5.26-1.21A6.4,6.4,0,0,0,193,27a17.57,17.57,0,0,0,.75-5.48,13.15,13.15,0,0,0-1.69-7.23q-1.69-2.58-6.25-2.58h-5.17Z"/><path class="cls-1" d="M217.93,73.24V1h16V73.24Z"/><path class="cls-1" d="M241.21,73.24,254.86,1h18.2l13.47,72.26H271.81L269.4,58H258.79l-2.5,15.26Zm19-24.8h7.67l-3.83-28.19Z"/><path class="cls-1" d="M293.13,73.24V1h11.24l14.81,34.79V1h13.2V73.24H321.59L306.78,35.77V73.24Z"/><path class="cls-1" d="M343.17,73.24V1h18.29q9.45,0,14.72,2.37a13.82,13.82,0,0,1,7.4,7.4q2.15,5,2.15,13.07V50.05q0,8.12-2.15,13.24a14,14,0,0,1-7.35,7.54q-5.22,2.42-14.59,2.41Zm16-11.06h2.5q3.66,0,5.26-1.07a4.75,4.75,0,0,0,2-3.21,29.68,29.68,0,0,0,.4-5.36V21.05a21.88,21.88,0,0,0-.49-5.17,4.28,4.28,0,0,0-2.1-2.86,11.24,11.24,0,0,0-5.17-.89h-2.41Z"/><path class="cls-1" d="M390.9,73.24,404.55,1h18.2l13.47,72.26H421.5L419.09,58H408.47L406,73.24Zm19-24.8h7.67l-3.83-28.19Z"/><path class="cls-1" d="M443.26,73.24,444.51,1h17.13l7.94,42,8.56-42h16.51l1.25,72.26H484.57l-1.34-48.08-8.39,48.08H464.76L455.84,24.8l-1.07,48.44Z"/><path class="cls-1" d="M505.35,73.24V1h16V73.24Z"/><path class="cls-1" d="M552.81,74.31q-8.12,0-12.85-2.86a16,16,0,0,1-6.78-8.2,35.6,35.6,0,0,1-2-12.76V23.64a35.15,35.15,0,0,1,2-12.76A15.77,15.77,0,0,1,540,2.81Q544.68,0,552.81,0t13,2.81a15.7,15.7,0,0,1,6.82,8.07,35.15,35.15,0,0,1,2,12.76V50.49a35.6,35.6,0,0,1-2,12.76,15.88,15.88,0,0,1-6.82,8.2Q561,74.32,552.81,74.31Zm0-11.33a4.81,4.81,0,0,0,3.66-1.25A6.17,6.17,0,0,0,558,58.52a22.23,22.23,0,0,0,.36-4V19.71a22,22,0,0,0-.36-4.05,6.15,6.15,0,0,0-1.51-3.17,4.81,4.81,0,0,0-3.66-1.25,4.52,4.52,0,0,0-3.48,1.25,6.24,6.24,0,0,0-1.52,3.17,22.87,22.87,0,0,0-.35,4.05v34.8a25.33,25.33,0,0,0,.31,4,6.09,6.09,0,0,0,1.43,3.21A4.62,4.62,0,0,0,552.81,63Z"/><path class="cls-1" d="M603.57,74.31a24,24,0,0,1-11.33-2.41,15.34,15.34,0,0,1-6.87-7.45q-2.32-5-2.59-13.07l13.65-2.05a32.28,32.28,0,0,0,.85,7.49,8.26,8.26,0,0,0,2.14,4.11,4.83,4.83,0,0,0,3.34,1.25c1.67,0,2.75-.57,3.26-1.7a8.58,8.58,0,0,0,.76-3.57,12.91,12.91,0,0,0-2.14-7.53,33.2,33.2,0,0,0-5.8-6.2l-6.25-5.45a34.94,34.94,0,0,1-6.91-7.89,20,20,0,0,1-2.81-10.93q0-9.18,5.44-14T603.12,0a19.09,19.09,0,0,1,9.32,2,13.74,13.74,0,0,1,5.36,5.13,21.24,21.24,0,0,1,2.49,6.69,42.16,42.16,0,0,1,.76,6.74l-13.74,1.69a54.31,54.31,0,0,0-.4-5.57A7.72,7.72,0,0,0,605.62,13a3.58,3.58,0,0,0-3-1.29,3.44,3.44,0,0,0-3.26,1.87,7.8,7.8,0,0,0-1,3.75,10.57,10.57,0,0,0,1.92,6.55,36.85,36.85,0,0,0,5,5.31l6,5.26a40.75,40.75,0,0,1,8,9.1,22.9,22.9,0,0,1,3.26,12.58,18.53,18.53,0,0,1-2.32,9.23,16.88,16.88,0,0,1-6.56,6.56A19.91,19.91,0,0,1,603.57,74.31Z"/><path class="cls-1" d="M145.18,149.65a10.36,10.36,0,0,1-5.59-1.38,8.7,8.7,0,0,1-3.34-3.86,17.46,17.46,0,0,1-1.4-5.89l2.49-.79a25.06,25.06,0,0,0,1.14,5,6.92,6.92,0,0,0,2.36,3.36,7.13,7.13,0,0,0,4.39,1.2,7.38,7.38,0,0,0,5-1.59q1.83-1.59,1.83-5.3a9.13,9.13,0,0,0-1.46-5.06,29.45,29.45,0,0,0-4.1-4.85l-7.85-7.79a14.17,14.17,0,0,1-2.86-4,10,10,0,0,1-.9-4.13,8.17,8.17,0,0,1,2.63-6.52,10,10,0,0,1,6.8-2.28,13,13,0,0,1,3.93.56,7.69,7.69,0,0,1,3,1.8,8.4,8.4,0,0,1,2,3.31,19.37,19.37,0,0,1,1,5.09l-2.44.58a17,17,0,0,0-1-5,6.12,6.12,0,0,0-2.33-3,7.62,7.62,0,0,0-4.13-1,7.85,7.85,0,0,0-4.88,1.49q-2,1.48-2,4.77a8,8,0,0,0,.66,3.18,11.53,11.53,0,0,0,2.47,3.33l7.73,7.64a31.68,31.68,0,0,1,4.48,5.43,11.29,11.29,0,0,1,1.88,6.33,10.37,10.37,0,0,1-1.22,5.32,7.43,7.43,0,0,1-3.39,3.1A11.6,11.6,0,0,1,145.18,149.65Z"/><path class="cls-1" d="M166.8,149.6a8.51,8.51,0,0,1-4.19-1,6.34,6.34,0,0,1-2.67-3.55,22.35,22.35,0,0,1-.93-7.29v-8.16a21.35,21.35,0,0,1,1-7.31,5.93,5.93,0,0,1,2.72-3.39,9.11,9.11,0,0,1,4.16-.9,7.38,7.38,0,0,1,4.51,1.22,6.75,6.75,0,0,1,2.33,3.89,29.25,29.25,0,0,1,.69,7.07v2.92H161.82V138a25.81,25.81,0,0,0,.5,5.73,5,5,0,0,0,1.62,2.91,4.56,4.56,0,0,0,2.86.85,7,7,0,0,0,2.23-.37,3.39,3.39,0,0,0,1.85-1.75,9.38,9.38,0,0,0,.74-4.29v-2.28h2.76v2a11.27,11.27,0,0,1-1.62,6.36C171.68,148.79,169.7,149.6,166.8,149.6Zm-5-18.18h9.8V129a32.32,32.32,0,0,0-.29-4.74,5.61,5.61,0,0,0-1.3-3.08,4.16,4.16,0,0,0-3.18-1.08,5.19,5.19,0,0,0-2.83.71,4.3,4.3,0,0,0-1.67,2.65,22.58,22.58,0,0,0-.53,5.59Z"/><path class="cls-1" d="M187.36,159.51a21.46,21.46,0,0,1-5.4-.59,6.81,6.81,0,0,1-3.37-1.8,4.25,4.25,0,0,1-1.14-3,5.62,5.62,0,0,1,.82-2.94,10.61,10.61,0,0,1,2.07-2.44,13.42,13.42,0,0,1,2.57-1.77,7.12,7.12,0,0,1-2.83-1.3,2.62,2.62,0,0,1-.88-2.09,4.29,4.29,0,0,1,1.06-2.78,21,21,0,0,1,2.76-2.73,8.58,8.58,0,0,1-3.16-4.14,16.09,16.09,0,0,1-.87-5.35,14.46,14.46,0,0,1,.87-5,9.27,9.27,0,0,1,2.76-4,7.33,7.33,0,0,1,4.9-1.59,6.73,6.73,0,0,1,4.37,1.27,9.56,9.56,0,0,1,2.41,2.81A8.42,8.42,0,0,1,196,120a6.88,6.88,0,0,1,2.44-1.51l.74-.26.79,2.12a8.24,8.24,0,0,0-1.85.69,10.51,10.51,0,0,0-1.75,1.08,7.09,7.09,0,0,0-1.32,1.3,12.73,12.73,0,0,1,.71,2.62,15.85,15.85,0,0,1,.29,2.57,16.38,16.38,0,0,1-.85,5.46,8,8,0,0,1-2.7,3.87,7.79,7.79,0,0,1-4.87,1.43,10.15,10.15,0,0,1-1.78-.16,8.53,8.53,0,0,1-1.51-.37,22.5,22.5,0,0,0-1.85,2.09,3.45,3.45,0,0,0-.85,2.1,1.44,1.44,0,0,0,.61,1.27,5.4,5.4,0,0,0,1.93.69l5,.9a14.16,14.16,0,0,1,5.91,2.28,5.33,5.33,0,0,1,2.15,4.55,5.57,5.57,0,0,1-1.38,3.9,7.93,7.93,0,0,1-3.6,2.2A16.44,16.44,0,0,1,187.36,159.51Zm0-2.28a12,12,0,0,0,5.3-1.06,3.54,3.54,0,0,0,2.17-3.39,4.14,4.14,0,0,0-.5-2,4.24,4.24,0,0,0-1.93-1.59,17.41,17.41,0,0,0-4.3-1.16l-3.34-.58a23.52,23.52,0,0,0-2,1.37,9.58,9.58,0,0,0-2,2,4.24,4.24,0,0,0-.85,2.62,3,3,0,0,0,1.93,2.92A13.54,13.54,0,0,0,187.36,157.23Zm.27-19.93a5.11,5.11,0,0,0,3.12-.87,5.34,5.34,0,0,0,1.75-2.23,10.16,10.16,0,0,0,.77-2.86,23.62,23.62,0,0,0,.19-2.78,16.51,16.51,0,0,0-.24-2.67,10.08,10.08,0,0,0-.88-2.79,5.78,5.78,0,0,0-1.77-2.17,4.94,4.94,0,0,0-3-.85,4.82,4.82,0,0,0-3,.9,6.51,6.51,0,0,0-1.83,2.28,10.57,10.57,0,0,0-.9,2.81,16.3,16.3,0,0,0-.23,2.49,20.07,20.07,0,0,0,.21,2.73,10,10,0,0,0,.85,2.89,5.66,5.66,0,0,0,1.82,2.25A5.26,5.26,0,0,0,187.63,137.3Z"/><path class="cls-1" d="M207,149.6a4.68,4.68,0,0,1-2.47-.66,4.52,4.52,0,0,1-1.72-2.12,10,10,0,0,1-.64-3.9V118.49H205V142.6c0,1.88.29,3.15.88,3.82a3,3,0,0,0,2.36,1,6.14,6.14,0,0,0,3.28-1,13.21,13.21,0,0,0,3-2.67V118.49h2.76v30.63h-2.76v-3.6a12.17,12.17,0,0,1-3.42,3A8.12,8.12,0,0,1,207,149.6Z"/><path class="cls-1" d="M223.71,149.12V118.49h2.81v4.14a9,9,0,0,1,3.42-3.37,8.25,8.25,0,0,1,3.84-1.08H234a.84.84,0,0,1,.29,0v2.91a1.59,1.59,0,0,0-.56-.13l-.61,0a7.23,7.23,0,0,0-3.79,1,8.44,8.44,0,0,0-2.83,2.92v24.21Z"/><path class="cls-1" d="M238.76,114.47v-4.88h2.86v4.88Zm0,34.65V118.49h2.86v30.63Z"/><path class="cls-1" d="M255,149.6q-4,0-5.59-3t-1.61-10V131.1a37.41,37.41,0,0,1,.58-7.23,8.14,8.14,0,0,1,2.12-4.37,6,6,0,0,1,4.34-1.48,6.13,6.13,0,0,1,3.34.87,9.11,9.11,0,0,1,2.23,1.93V106.2h2.81v42.92h-2.81v-2.33a10.53,10.53,0,0,1-2.2,1.91A5.65,5.65,0,0,1,255,149.6Zm.37-2.17a5.35,5.35,0,0,0,2.84-.8,9.91,9.91,0,0,0,2.2-1.8v-22a15.38,15.38,0,0,0-2.15-1.75,5,5,0,0,0-2.94-.9,3.64,3.64,0,0,0-3.81,2.44,24.37,24.37,0,0,0-.9,7.79v6.35a38.4,38.4,0,0,0,.39,6.07,6.7,6.7,0,0,0,1.43,3.47A3.83,3.83,0,0,0,255.34,147.43Z"/><path class="cls-1" d="M274.42,149.6a6,6,0,0,1-3.23-.85,5.72,5.72,0,0,1-2.15-2.36,7.55,7.55,0,0,1-.77-3.47,10.39,10.39,0,0,1,.51-3.42,6.93,6.93,0,0,1,1.82-2.73,20.28,20.28,0,0,1,3.79-2.67c1.65-.94,3.77-2,6.39-3.26v-2.17a25.83,25.83,0,0,0-.4-5.2,4.4,4.4,0,0,0-1.32-2.59,3.9,3.9,0,0,0-2.52-.74,6.54,6.54,0,0,0-2.33.42,3.62,3.62,0,0,0-1.83,1.67,7.51,7.51,0,0,0-.72,3.68v.8h-2.75c0-2.93.59-5.12,1.77-6.55s3.17-2.14,6-2.14c2.57,0,4.38.81,5.4,2.43s1.54,4.26,1.54,7.9v15.42c0,.28,0,.82,0,1.62s0,1.56.06,2.3a10.62,10.62,0,0,0,.08,1.43h-2.44c-.07-.74-.16-1.52-.27-2.33s-.17-1.4-.21-1.75a7.1,7.1,0,0,1-2.38,3.23A6.33,6.33,0,0,1,274.42,149.6Zm.69-2.33a4.73,4.73,0,0,0,2.38-.61,7.39,7.39,0,0,0,1.91-1.59,9.06,9.06,0,0,0,1.38-2.1V132.91c-1.87,1-3.44,1.83-4.69,2.54a18.43,18.43,0,0,0-3,2,5.7,5.7,0,0,0-1.56,2.15,7.73,7.73,0,0,0-.48,2.89c0,1.83.43,3.09,1.27,3.76A4.38,4.38,0,0,0,275.11,147.27Z"/><path class="cls-1" d="M296,149.6c-2.65,0-4.52-1-5.59-3s-1.62-5.36-1.62-10V131.1a37.41,37.41,0,0,1,.58-7.23,8.21,8.21,0,0,1,2.12-4.37,6,6,0,0,1,4.35-1.48,6.15,6.15,0,0,1,3.34.87,9,9,0,0,1,2.22,1.93V106.2h2.81v42.92h-2.81v-2.33a10.28,10.28,0,0,1-2.2,1.91A5.64,5.64,0,0,1,296,149.6Zm.37-2.17a5.31,5.31,0,0,0,2.83-.8,9.68,9.68,0,0,0,2.2-1.8v-22a15.24,15.24,0,0,0-2.14-1.75,5.07,5.07,0,0,0-2.95-.9,3.64,3.64,0,0,0-3.81,2.44,24.37,24.37,0,0,0-.9,7.79v6.35a37.08,37.08,0,0,0,.4,6.07,6.62,6.62,0,0,0,1.43,3.47A3.83,3.83,0,0,0,296.36,147.43Z"/><path class="cls-1" d="M327.46,149.6c-2.3,0-4-.54-5.09-1.62a7.84,7.84,0,0,1-2.14-4.32,32.65,32.65,0,0,1-.51-6v-7.2a30.57,30.57,0,0,1,.69-7.24,6.62,6.62,0,0,1,2.39-3.94,7.79,7.79,0,0,1,4.66-1.22,7.59,7.59,0,0,1,4.8,1.29,6.25,6.25,0,0,1,2.14,3.56,21.72,21.72,0,0,1,.53,5.06v1.21h-2.65v-1.21a17.37,17.37,0,0,0-.5-4.8,4,4,0,0,0-1.56-2.33,5.17,5.17,0,0,0-2.76-.66,4.39,4.39,0,0,0-3.12,1,5.4,5.4,0,0,0-1.44,3.15,37.11,37.11,0,0,0-.37,5.83v8a19.27,19.27,0,0,0,1,7.2q1,2.24,4,2.23a4.59,4.59,0,0,0,3.1-.9,4.64,4.64,0,0,0,1.36-2.81,31.43,31.43,0,0,0,.31-4.93v-1.16h2.65v1.11a29.56,29.56,0,0,1-.47,5.51,6.83,6.83,0,0,1-2.07,3.87A7.22,7.22,0,0,1,327.46,149.6Z"/><path class="cls-1" d="M347.28,149.6a7.33,7.33,0,0,1-4.69-1.33,7,7,0,0,1-2.33-3.92,26.48,26.48,0,0,1-.66-6.41v-8.27a26.48,26.48,0,0,1,.66-6.41,7,7,0,0,1,2.33-3.92,7.39,7.39,0,0,1,4.69-1.32,7.47,7.47,0,0,1,4.74,1.32,7,7,0,0,1,2.33,3.9,26.31,26.31,0,0,1,.67,6.43v8.27a26.43,26.43,0,0,1-.67,6.41,7,7,0,0,1-2.33,3.92A7.41,7.41,0,0,1,347.28,149.6Zm0-2.12a4.27,4.27,0,0,0,3.28-1.14,5.86,5.86,0,0,0,1.36-3.26,38.24,38.24,0,0,0,.29-5v-8.48a38.08,38.08,0,0,0-.29-5.06,5.8,5.8,0,0,0-1.36-3.23,4.27,4.27,0,0,0-3.28-1.14,4.21,4.21,0,0,0-3.26,1.14,5.85,5.85,0,0,0-1.32,3.23,36.29,36.29,0,0,0-.3,5.06v8.48a36.43,36.43,0,0,0,.3,5,5.92,5.92,0,0,0,1.32,3.26A4.21,4.21,0,0,0,347.28,147.48Z"/><path class="cls-1" d="M360.47,149.12V118.49h2.81v3.29a11.87,11.87,0,0,1,3.29-2.73,8,8,0,0,1,4-1,4.68,4.68,0,0,1,2.47.66,4.53,4.53,0,0,1,1.72,2.12,10,10,0,0,1,.63,3.89v24.43h-2.81V125q0-2.81-.87-3.81a3,3,0,0,0-2.36-1,6,6,0,0,0-3.1.93,12.57,12.57,0,0,0-2.94,2.46v25.54Z"/><path class="cls-1" d="M389.88,149.12l9-42.92h3.34l9.06,42.92h-2.91l-2.23-11.87H395l-2.28,11.87Zm5.57-14h10.33l-5.19-25.43Z"/><path class="cls-1" d="M416.53,149.12V106.2h2.81v42.92Z"/><path class="cls-1" d="M432.59,149.44a5,5,0,0,1-3.18-.85,3.9,3.9,0,0,1-1.38-2.28,15.07,15.07,0,0,1-.31-3.23V120.35h-4v-1.86h4v-9.8h2.8v9.8h5.2v1.86h-5.2v22.36a8.94,8.94,0,0,0,.48,3.5c.32.67,1,1,2.17,1a7.63,7.63,0,0,0,1.14-.08q.62-.07,1.14-.18v2.17a9,9,0,0,1-1.43.24C433.49,149.41,433,149.44,432.59,149.44Z"/><path class="cls-1" d="M444.35,149.6a4.62,4.62,0,0,1-2.46-.66,4.46,4.46,0,0,1-1.72-2.12,9.78,9.78,0,0,1-.64-3.9V118.49h2.81V142.6c0,1.88.29,3.15.87,3.82a3,3,0,0,0,2.36,1,6.14,6.14,0,0,0,3.29-1,13.21,13.21,0,0,0,3-2.67V118.49h2.75v30.63h-2.75v-3.6a12.17,12.17,0,0,1-3.42,3A8.13,8.13,0,0,1,444.35,149.6Z"/><path class="cls-1" d="M461.1,149.12V118.49h2.81v4.14a8.88,8.88,0,0,1,3.41-3.37,8.25,8.25,0,0,1,3.84-1.08h.24a.77.77,0,0,1,.29,0v2.91a1.53,1.53,0,0,0-.55-.13l-.61,0a7.21,7.21,0,0,0-3.79,1,8.36,8.36,0,0,0-2.83,2.92v24.21Z"/><path class="cls-1" d="M480.65,149.6a6,6,0,0,1-3.23-.85,5.72,5.72,0,0,1-2.15-2.36,7.55,7.55,0,0,1-.77-3.47,10.39,10.39,0,0,1,.51-3.42,6.93,6.93,0,0,1,1.82-2.73,20.28,20.28,0,0,1,3.79-2.67c1.65-.94,3.77-2,6.39-3.26v-2.17a25.83,25.83,0,0,0-.4-5.2,4.4,4.4,0,0,0-1.32-2.59,3.9,3.9,0,0,0-2.52-.74,6.54,6.54,0,0,0-2.33.42,3.62,3.62,0,0,0-1.83,1.67,7.51,7.51,0,0,0-.72,3.68v.8h-2.75c0-2.93.59-5.12,1.77-6.55s3.17-2.14,6-2.14c2.58,0,4.39.81,5.41,2.43s1.54,4.26,1.54,7.9v15.42c0,.28,0,.82,0,1.62s0,1.56.06,2.3a10.62,10.62,0,0,0,.08,1.43h-2.44c-.07-.74-.16-1.52-.27-2.33s-.17-1.4-.21-1.75a7.1,7.1,0,0,1-2.38,3.23A6.33,6.33,0,0,1,480.65,149.6Zm.69-2.33a4.73,4.73,0,0,0,2.38-.61,7.39,7.39,0,0,0,1.91-1.59A9.4,9.4,0,0,0,487,143V132.91c-1.87,1-3.44,1.83-4.69,2.54a18.43,18.43,0,0,0-3,2,5.7,5.7,0,0,0-1.56,2.15,7.73,7.73,0,0,0-.48,2.89c0,1.83.43,3.09,1.27,3.76A4.38,4.38,0,0,0,481.34,147.27Z"/></g></g></svg>