<svg xmlns="http://www.w3.org/2000/svg" viewBox="0 0 506.98 649.65"><defs><style>.cls-1{fill:#7d5a37;}.cls-2{fill:#5b4229;}.cls-3{fill:#735233;}.cls-4{fill:#5c4229;}.cls-26,.cls-5{fill:#56341d;}.cls-5{opacity:0.6;}.cls-6{fill:#a6a6a6;}.cls-7{fill:#aeaeaf;}.cls-8{fill:#ffa158;}.cls-9{fill:#aeaeae;}.cls-10{fill:#cc8147;}.cls-11{fill:#818f9c;}.cls-12{fill:#b63a3a;}.cls-13{fill:#b53a3a;}.cls-14{fill:#3f76ab;}.cls-15{fill:#ffbb7d;}.cls-16{fill:#3c3c3b;}.cls-17{fill:#565656;}.cls-18{fill:#010000;}.cls-19{fill:#1d1d1b;}.cls-20{fill:#e05a00;}.cls-21{fill:#ff8723;}.cls-22{fill:#ededed;}.cls-23{fill:#fcaf75;}.cls-24{fill:#fc9e62;}.cls-25{fill:#fcb075;}.cls-26{opacity:0.5;}.cls-27{fill:#2f4b66;}.cls-28{fill:#3f668a;}.cls-29{fill:#a0a0a0;}.cls-30{fill:#dbdbdb;}.cls-31{fill:#fbaf75;}.cls-32{fill:#ff8522;}</style></defs><title>andamio</title><g id="Layer_2" data-name="Layer 2"><g id="complete"><polygon class="cls-1" points="162.66 601.3 1.97 509.23 343.76 311.19 502.71 404.13 162.66 601.3"/><polygon class="cls-2" points="27.68 494.33 35.34 489.89 195.58 582.21 187.89 586.67 27.68 494.33"/><polygon class="cls-2" points="57.22 477.24 64.88 472.8 225.11 565.11 217.42 569.58 57.22 477.24"/><polygon class="cls-2" points="83.29 462.07 90.95 457.63 251.18 549.95 243.5 554.41 83.29 462.07"/><polygon class="cls-2" points="111.44 445.79 119.09 441.35 279.33 533.66 271.64 538.13 111.44 445.79"/><polygon class="cls-2" points="140.73 428.8 148.38 424.36 308.62 516.67 300.93 521.13 140.73 428.8"/><polygon class="cls-2" points="170.14 411.72 177.8 407.28 338.03 499.59 330.35 504.06 170.14 411.72"/><polygon class="cls-2" points="196.09 396.68 203.75 392.24 363.99 484.55 356.3 489.01 196.09 396.68"/><polygon class="cls-2" points="225.62 379.55 233.28 375.11 393.51 467.42 385.83 471.88 225.62 379.55"/><polygon class="cls-2" points="253.82 363.22 261.48 358.78 421.71 451.09 414.02 455.56 253.82 363.22"/><polygon class="cls-2" points="282.66 346.48 290.32 342.04 450.56 434.35 442.87 438.82 282.66 346.48"/><polygon class="cls-2" points="309.36 331.04 317.01 326.61 477.25 418.92 469.56 423.38 309.36 331.04"/><polygon class="cls-3" points="162.66 601.3 162.66 613.09 1.97 520.06 1.97 509.23 162.66 601.3"/><polygon class="cls-4" points="502.71 415.08 162.66 613.09 162.66 601.3 502.71 404.13 502.71 415.08"/><ellipse class="cls-5" cx="312.06" cy="399.83" rx="80.41" ry="48.55"/><path class="cls-6" d="M176.48,375.29,496,331.54s3.85-.7,3.09,4.19L173.45,380.88S171.29,376,176.48,375.29Z"/><path class="cls-7" d="M173,521.53,496.26,185.61s2.61-1,3,3.32L175.3,526.19S170.55,524.08,173,521.53Z"/><path class="cls-8" d="M134.29,649.2,335.77,532s3.33-8.1-5.22-9.9L110.68,649.2Z"/><polygon class="cls-9" points="26.07 278.37 302.78 240.51 302.78 234.15 24.08 274.02 26.07 278.37"/><rect class="cls-10" x="0.06" y="274.02" width="12.09" height="375.63"/><polygon class="cls-10" points="329.66 649.65 329.66 515.86 342.93 508.45 342.93 649.65 329.66 649.65"/><polygon class="cls-10" points="495.88 648.72 495.88 177.82 506.8 177.71 506.8 648.72 495.88 648.72"/><path class="cls-11" d="M117.33,649.17l-105-61.11a9.13,9.13,0,0,0-5.92,9.29l88.71,51.82Z"/><polygon class="cls-11" points="495.88 224.35 495.88 210.84 360.64 131.28 360.64 144.8 495.88 224.35"/><polygon class="cls-11" points="495.94 362.1 495.88 348.54 331.63 252.09 331.63 264.77 495.94 362.1"/><polygon class="cls-11" points="495.88 499.78 495.88 485.97 438.26 452.61 425.91 459.8 495.88 499.78"/><path class="cls-12" d="M329.74,535.37V516.52s7.1,4.12,13.18,0V536.1S333,541.18,329.74,535.37Z"/><path class="cls-11" d="M495.88,636.58V624.24L342.21,533.63s-7.9-.15-6.08,9.42Z"/><polygon class="cls-6" points="48.31 649.17 98.28 575.82 102.11 578.04 53.97 649.17 48.31 649.17"/><polygon class="cls-6" points="243.9 649.2 314.87 544.06 324.43 538.04 249.91 649.2 243.9 649.2"/><path class="cls-6" d="M279.83,649.2,494.69,330.07s3.73-1.6,4.44,2.12l-213.29,317Z"/><polygon class="cls-6" points="14.1 431.09 97.17 454.07 101.94 451.31 19.36 428.05 14.1 431.09"/><polygon class="cls-6" points="14.16 417.35 25.93 410.71 142.56 289.96 142.56 283.17 14.16 417.35"/><polygon class="cls-6" points="25.89 278.24 35.9 272.42 269.11 240.3 269.11 245.19 25.89 278.24"/><polygon class="cls-6" points="271.44 327.81 242.81 371.57 233.04 375.29 261.66 333.4 271.44 327.81"/><path class="cls-7" d="M168.65,529.18l330.48,92.13a2.81,2.81,0,0,0,.1-4.32l-330.58-93.8S166,524.19,168.65,529.18Z"/><path class="cls-7" d="M474.91,649.65l18.16-28.34s4.29-1,4.92,3.26l-16.73,25.08Z"/><path class="cls-8" d="M441.16,649.2l56.3-32.64s7.78,2.48,5.6,10.58l-40.54,22.51Z"/><path class="cls-12" d="M495.74,344.33l.14-18.47s4.29,5,11.1,0v17.89A10.13,10.13,0,0,1,495.74,344.33Z"/><polygon class="cls-8" points="12.15 432.23 279.77 277.11 279.77 264.52 12.15 418.52 12.15 432.23"/><polygon class="cls-8" points="12.15 273.02 12.15 286.5 238.99 153.86 238.99 139.92 12.15 273.02"/><path class="cls-8" d="M12.15,273.63c0,1.77-2.55,3.19-6,3.19S0,275.4,0,273.63s2.77-3.18,6.18-3.18S12.15,271.87,12.15,273.63Z"/><path class="cls-8" d="M506.8,177.71c0,1.67-2.4,3-5.79,3s-5.13-1.24-5.13-2.91,1.73-3.14,5.13-3.14S506.8,176,506.8,177.71Z"/><path class="cls-13" d="M.06,439.86v-18.2s6.61,5,12.09,0v17.55S5.61,444.76.06,439.86Z"/><path class="cls-13" d="M.06,292.73,0,273.63s5.33,5.16,12.14-.15v19.2S5.85,297.1.06,292.73Z"/><path class="cls-12" d="M495.88,197.86v-20s4,5.55,10.92,0v20S501.91,202.77,495.88,197.86Z"/><path class="cls-12" d="M495.83,632.74V615.16a10.24,10.24,0,0,0,10.92,0V632S501.65,636.5,495.83,632.74Z"/><path class="cls-14" d="M348.45,79.63S323,49.49,299.09,51.13c-5.29.37-23.26-.88-21.63,11C279.19,74.9,274.27,91.9,264.9,96,258.3,98.81,348.45,79.63,348.45,79.63Z"/><path class="cls-15" d="M331.12,374s-16.34-75-16.34-100.16,27.43,3,27.43,3,9.21,38.52,2.82,98.46c0,0,5.22,22-7.82,22.36S331.12,374,331.12,374Z"/><path class="cls-15" d="M269.49,255.43s-1.32,34.77,4.88,94.71L258,373.44s19.73,4.7,32.13-20.67c0,0,3-61.45,11.46-79.48S269.49,255.43,269.49,255.43Z"/><path class="cls-16" d="M267.46,262.36s-4.59-14.77,3.3-81.74,0-.57,0-.57l72.84-15.2S354.36,170,347.76,211s-2.58,70.12-2.58,70.12S299.44,296.06,267.46,262.36Z"/><path class="cls-17" d="M327.44,284.21,324.52,172.4h0l19.08-7.55S354.36,170,347.76,211s-2.58,70.12-2.58,70.12Z"/><path class="cls-18" d="M330.75,375a41.82,41.82,0,0,0,0,32.13c3.81,9.33,10.21,8.65,14.09,0,3.66-8.15,4.89-22.55,0-32.13,0,0,1.88,22.73-7.63,22.55C328.07,397.31,330.75,375,330.75,375Z"/><path class="cls-18" d="M264.46,364.27c-.19.56-13,12.56-14.23,21.39,0,0,7.61,5.63,24.52-7.52,0,0,2.07-5.07,9.4-7.89v1.69s7.32-4.32,8.45-7.7l-2.07-13.16s-15,18-24.4,19.73C257.71,372.38,264.46,364.27,264.46,364.27Z"/><path class="cls-19" d="M298.3,47.57s4.47,2.86,7.63,2.47,6.23,3.13,6.23,3.13-.91-10.05,4.91-10.24c0,0,4.93.2,2.76,6.61,0,0,.4,8.58,7.4,11.94a32,32,0,0,1,11.14,9.17s7-22.78-16-29.19c0,0,4.53-8.39-2-12.53C320.42,28.93,300.08,28.14,298.3,47.57Z"/><path class="cls-20" d="M266.52,43.17V37.84l3.35-6.7V25.69l4.21-5S281,2.5,290.7.52a27.72,27.72,0,0,1,17.48,2.35s8.92,4.84,11.65,11.78l5,6.08.62,7.19-1.74,1.86s-5.2,13.63-26.9,18.35a35.35,35.35,0,0,0-9.92,3.09S274.33,50.36,266.52,43.17Z"/><path class="cls-21" d="M284.21,27.47s8.66-26.08,25.23-22.42C309.44,5.05,288.6-4.09,284.21,27.47Z"/><path class="cls-21" d="M284.21,12.73c-.11.42,5.7-8.9,11.38-10.12C295.59,2.61,287.38,1.27,284.21,12.73Z"/><path class="cls-21" d="M315.65,10.29s-6.33-4.68-17.79,9.26C297.86,19.55,303.59,3.71,315.65,10.29Z"/><path class="cls-21" d="M271.6,38.7l-.74-12.27-.74,11.65s-1-1.86-1-1.48-1.24,5.7-1.24,5.7,7.69,7.07,18.11,7.07a94,94,0,0,1,14.87-3.48c8.8-1.36,18.35-9.54,21.08-14l1.36-3.22-1.49-5.45,1.49-3-1.36-1.36-2,4,1.62,5.58s-2.11,6.08-5.34,7l-5.7,4.46s-5,3.72-6.82,3.47l-.86-4.46L309,35.11l-.86-1-6.95,4.21.75,5.33s-11.41,1.86-13.27,2.85c0,0-1-9.79.75-13.88,0,0-11.53-3.47-15.25-6.45l-.37,2s8.23,5.39,13.66,5.39l-1.14,13.2S270.74,42.92,271.6,38.7Z"/><path class="cls-22" d="M215.1,105.32s21.27,35.07,26.18,87.43L393,162.6s-11.92-83.92-19.87-93Z"/><path class="cls-23" d="M280.35,49.86S286,70.88,297.24,67c0,0,3.17,19.36,17.6,6.51s7.21-15.94,7.21-15.94l-.76-5.13s1.14-11.84-6.2-9.24c0,0-3.9,2.53-3.07,9.69,0,0-3.26-3.68-5.85-3.11S299,46.38,299,46.38Z"/><path class="cls-24" d="M297.24,67s3.17,16.51,12.16,7.65c3.7-3.65,4.36-6.2,3.92-20.44C313.32,54.23,303.07,69,297.24,67Z"/><path class="cls-25" d="M383.55,108.6s8.74,2.33,5.53,7a2.09,2.09,0,0,1,.71,2.45,3.21,3.21,0,0,1,.86,3.9,2.41,2.41,0,0,1,.3,2.64s1.33,1.57.27,2.83-6.66,4.71-6.66,4.71-2.83.69-2.39-1.88c0,0-2.83-1-2.2-3,0,0-2.2-.38-1.7-2.14,0,0-2.26-1.32-1.07-3,0,0-1.88-2.33.19-3.84s6.63-4.9,6.63-4.9Z"/><path class="cls-23" d="M228.36,134.87s.65,6.47,9.88,3.53c0,0,4.52.41,2.2,3.49,0,0,2.72,1.39.66,3.13a1.92,1.92,0,0,1,.21,3.19,1.74,1.74,0,0,1-.4,2.85s1.21,2-1.28,2.38-7.2,1.33-9.42-1.51a2.88,2.88,0,0,1-.91-2c-.06-1.16,0-1.7,0-2.26a5.69,5.69,0,0,0-1.29-3,4.7,4.7,0,0,1-1-3.54c.06-1.51-1.08-5.07,1.14-6.87Z"/><ellipse class="cls-26" cx="202.92" cy="509.54" rx="82.36" ry="47.03"/><path class="cls-19" d="M185.48,506.26c0,.52,2.36,18.1,2.36,18.1s-15.09,9.19-29.39-2.09v-3.81s-15.61,3.41-24.67-9.84-.65-20.78,25.59-14.3C178.71,499.09,185.48,506.26,185.48,506.26Z"/><path class="cls-19" d="M233.76,486.45c-.13.39,1.05,15.22,1.05,15.22s-15.48,11.28-29.52-5.51l.39-4.29s-8.39,6.12-21.78-9.62-.39-16.93,21.39-13.38S233.76,486.45,233.76,486.45Z"/><path class="cls-27" d="M187.34,291.28l-36.56,8.27s-17.14,27.76,3.71,104.91L156.11,500a23.16,23.16,0,0,0,23.53,12.2c17.05-1.79,2.9-130.71,2.9-130.71Z"/><path class="cls-27" d="M203.09,472.79s5.87,21.08,30.7,13.34c0,0,10.05-92.08-5.78-112.37,0,0,2.26-77.41-2.65-89.82l-42.82,40.44s10.41,51,15.21,67.8C197.75,392.18,198.55,423.41,203.09,472.79Z"/><path class="cls-28" d="M161.45,507.22s11.75,11.48,25.89,1.34c0,0,12.82-90.22,0-111,0,0,9.35-59,7.48-68.34,0,0,40-4.53,30.16-47l-56,21.63s-29.63,18.15-4,104.63C164.92,408.46,155.85,336.39,161.45,507.22Z"/><polygon class="cls-23" points="132.12 226.43 126.7 221.98 112.38 230.87 105 237.6 121.71 246.32 133.21 236.73 132.12 226.43"/><path class="cls-28" d="M131.11,223.87,158,213.65l5.24,18.83-32.13,6.72S128,231,131.11,223.87Z"/><path class="cls-20" d="M140.89,300.43s56.56,41.54,94.39-24l3.89-91.74s-1.94-33.58-26.51-25.27l-8,2.47s6.42,12.1-32.35,18.56c0,0-25.63,10.78-28.28,16.26S146,179.71,140.89,300.43Z"/><path class="cls-23" d="M105,257.13s-11.72-5.64-19.1-4.77S66,241.1,67.68,236.73c2.38-6.07,3.79-7.81,10.68-8s7.76-1.3,12.53,5.21S105,242.82,105,242.82Z"/><path class="cls-28" d="M144.69,250s-2.15-8.47,2.55-22.72c0,0-11.42-40.19,19.09-39s14.25,60.09,14.25,60.09-5.65,27.29-14.79,28.23-35.22-1.75-65.73-18c0,0-.14-18.82,0-18.41S121.16,238.25,144.69,250Z"/><polygon class="cls-29" points="51.53 187.04 93.61 166.2 135.81 217.42 97.64 246.32 95.76 247.53 50.19 188.22 51.53 187.04"/><polyline class="cls-30" points="51.53 187.04 93.61 166.2 135.81 217.42 97.64 246.32"/><path class="cls-31" d="M159.54,143.12s-3,19.54,8.32,22.59c0,0,6.75.12,5.63,14.51s34.14-14,34.14-14-6.42-3.45-7.72-7.46,6.11-27.34,1.91-28.35S167.45,105.75,159.54,143.12Z"/><path class="cls-11" d="M165.06,554.41v-14.9L12.57,451.2s-7.62-.29-6.21,8.73Z"/><rect class="cls-10" x="165.06" y="369.44" width="12.48" height="278.89"/><path class="cls-8" d="M177.54,369.44c0,2-2.75,3.56-6.13,3.56s-6.35-1.59-6.35-3.56,3-3.56,6.35-3.56S177.54,367.47,177.54,369.44Z"/><path class="cls-13" d="M164.85,388.27V369.44s5.53,7.1,12.69-.41v19.24A9.74,9.74,0,0,1,164.85,388.27Z"/><path class="cls-12" d="M165.06,535.24V517.8s5.08,4.31,12.4-.63l.08,17.77S171.3,538.54,165.06,535.24Z"/><path class="cls-11" d="M165.06,417V403.22L11.44,312.92s-7.69,1.69-5.25,9.86Z"/><path class="cls-8" d="M177.54,382.86l320-186.73s7.24-10.57-2.9-12.82L177.43,368.77Z"/><path class="cls-8" d="M177.54,529,499.23,340.91s3.59-9.27-5.77-9L177.54,515.28Z"/><path class="cls-18" d="M206.68,135.14s0,21.14-6.57,25.25-13.76,8.62-25.66,1.85c0,0-2.88-2.47-1-7s-.82-9.86-3.08-8.21-3.69.34-4.31,3.66c0,0-1.23-2.23,2.67-5.31S179.17,125.7,206.68,135.14Z"/><path class="cls-20" d="M152.13,117.67,142.81,124s1.4,32.46,45.78,24.25c0,0,16.63-3,20.24-12.13,0,0,5.31-11.92-18-29.65A47.51,47.51,0,0,0,163.65,109a33,33,0,0,1-3.81.4l-7.31,5.41Z"/><path class="cls-32" d="M182.68,106.25c-.36,0,11.72,4.61,14.93,13.22C197.61,119.47,195.71,107.45,182.68,106.25Z"/><path class="cls-32" d="M165.25,110.06s18.83-8.22,29.95,22.44C195.2,132.5,187.19,97.34,165.25,110.06Z"/><path class="cls-32" d="M162.35,115.17s13.22-3.21,24.44,17.33C186.79,132.5,177.47,106,162.35,115.17Z"/><path class="cls-32" d="M162.35,110.66c-.51.4-8.62,17.73-8.62,17.73s4.61.6,3.11,6.81c0,0,4.8,6.61,11.82,9.52v1.6s-22.14-9-19.94-22.84l4.51-5.11.6-3.3,7.41-4.41Z"/><path class="cls-32" d="M174.58,146.54v-4l-4.44-2V139.1l12.11,3-.6,4.44a39.12,39.12,0,0,0,23.64-6.62s-4.8,9.5-30.71,7.94Z"/></g></g></svg>