<svg xmlns="http://www.w3.org/2000/svg" viewBox="0 0 96.09 78.1"><defs><style>.cls-1{fill:#fff;}</style></defs><title>twitter</title><g id="Layer_2" data-name="Layer 2"><g id="Layer_1-2" data-name="Layer 1"><path class="cls-1" d="M30.22,78.1c36.27,0,56.1-30,56.1-56.1,0-.85,0-1.7-.06-2.55A39.76,39.76,0,0,0,96.09,9.24a39.38,39.38,0,0,1-11.32,3.11A19.88,19.88,0,0,0,93.45,1.44,39.92,39.92,0,0,1,80.92,6.23a19.72,19.72,0,0,0-34.1,13.48,20.22,20.22,0,0,0,.51,4.5A56,56,0,0,1,6.69,3.61,19.73,19.73,0,0,0,12.8,29.93a19.59,19.59,0,0,1-8.94-2.47v.25A19.73,19.73,0,0,0,19.67,47a19.25,19.25,0,0,1-8.9.33,19.76,19.76,0,0,0,18.42,13.7A39.56,39.56,0,0,1,4.7,69.51,40.63,40.63,0,0,1,0,69.24,55.72,55.72,0,0,0,30.22,78.1"/></g></g></svg>