<svg xmlns="http://www.w3.org/2000/svg" viewBox="0 0 283 283"><defs><style>.cls-1{fill:#494c55;}.cls-2{fill:#dfdf31;}</style></defs><g id="Layer_2" data-name="Layer 2"><g id="toExport"><g id="asesoria_copy" data-name="asesoria copy"><rect class="cls-1" width="283" height="283"/><path class="cls-2" d="M56.8,143.48,65.25,154s2.82-4.46,11.5-3.29,9.62,10.09,9.62,10.09,2.81-8.44,10.79-8.68,14.08,8.68,13.14,15.49c0,0,13.37,1.17,12.9,15.95,0,0,9.86.47,12.44,8.92a13.44,13.44,0,0,1-3,13.6s28.39,10.56,32.61-2.81l-21.82-10.56s-2.35-.23,0-3.75c0,0,.24-1.65,3.52-.47,2.72,1,15.69,7.39,20.11,9.58a10.53,10.53,0,0,0,3.49,1.06c2.92.33,8.08.42,9.25-2.9,1.64-4.69.7-6.1-3.05-8s-22.76-13.84-22.76-13.84-1.64-2.11-.7-4,7,1.88,7,1.88l23.23,13.84s6.34,1.64,10.09-1.41,3.29-9.62-2.81-12l-27.22-16.9s-1.64-1.64-.47-3.28,4-.47,4-.47l33.31,20.41s5.87,1.88,9.15-1.87,2.82-10.33-4.22-14.32c0,0-46.45-36.83-63.59-41.76-4.81-1.38-5.67-3.2-19.23,9.62-12.9,12.2-24.64,7.51-24.64,7.51s-8-2.35-1.4-14.78l11.26-16.66s-16.43,0-22.76-7Z"/><rect class="cls-2" x="83.55" y="155.56" width="15.14" height="37.65" rx="7.18" transform="translate(119.01 -20.38) rotate(35.74)"/><rect class="cls-2" x="98.18" y="171.72" width="15.14" height="32.19" rx="7.18" transform="translate(129.6 -26.4) rotate(35.74)"/><rect class="cls-2" x="113.12" y="188.01" width="15.14" height="25.21" rx="7.18" transform="translate(139.89 -32.72) rotate(35.74)"/><rect class="cls-2" x="65.15" y="155.34" width="15.14" height="20.52" rx="7.18" transform="translate(110.41 -11.29) rotate(35.74)"/><rect class="cls-2" x="47.11" y="71.97" width="21.36" height="75.15" rx="2.98" transform="translate(59.6 -14.3) rotate(28.65)"/><rect class="cls-2" x="214.55" y="71.97" width="21.36" height="75.15" rx="2.98" transform="translate(475.41 97.69) rotate(151.35)"/><path class="cls-2" d="M226.2,142.64,198,92.61s-9.16,3.64-17.78.66-25.62-7-53.67-2c0,0-7,.66-10.83,6.18S99.18,122.1,99.18,122.76c0,4.09,7.52,8.07,15.14,1.33s16.71-19.82,26.57-16.25c15.28,5.54,47.84,27.91,63.55,41.65,1.94,1.7,6,6.52,9.83,3.2C217.23,150.16,226.2,142.64,226.2,142.64Z"/></g></g></g></svg>