<?xml version="1.0" encoding="utf-8"?>
<!-- Generator: Adobe Illustrator 22.0.1, SVG Export Plug-In . SVG Version: 6.00 Build 0)  -->
<svg version="1.1" id="Layer_1" xmlns="http://www.w3.org/2000/svg" xmlns:xlink="http://www.w3.org/1999/xlink" x="0px" y="0px"
	 viewBox="0 0 622.5 159.5" style="enable-background:new 0 0 622.5 159.5;" xml:space="preserve">
<style type="text/css">
	.st0{fill:#E12733;}
</style>
<title>tipografía</title>
<g>
	<path class="st0" d="M28.8,122c-6,0-10.8-1.1-14.3-3.3c-3.5-2.2-6-5.3-7.4-9.3c-1.4-4-2.2-8.6-2.2-14V66.7c0-5.5,0.7-10.3,2.2-14.2
		c1.4-4,3.9-7,7.4-9.2c3.5-2.2,8.3-3.2,14.3-3.2c5.9,0,10.5,1,13.8,2.9c3.3,1.9,5.7,4.6,7,8.1c1.4,3.5,2.1,7.5,2.1,12v6.9H34.5v-8
		c0-1.6-0.1-3.1-0.2-4.5c-0.2-1.4-0.6-2.6-1.4-3.6c-0.8-1-2.1-1.4-4-1.4c-1.8,0-3.2,0.5-4.1,1.5c-0.9,1-1.4,2.2-1.7,3.7
		c-0.2,1.5-0.3,3-0.3,4.7v37.5c0,1.8,0.1,3.4,0.4,4.9c0.3,1.5,0.9,2.7,1.8,3.5c0.9,0.9,2.2,1.3,3.9,1.3c1.8,0,3.2-0.5,3.9-1.4
		c0.8-1,1.3-2.2,1.5-3.7c0.2-1.5,0.3-3.1,0.3-4.6v-8.4h17.2v6.9c0,4.5-0.7,8.6-2,12.2c-1.3,3.6-3.7,6.4-7,8.5
		C39.4,121,34.7,122,28.8,122z"/>
	<path class="st0" d="M84.2,122c-6,0-10.7-1.1-14.2-3.2c-3.5-2.1-6-5.1-7.5-9.1c-1.5-3.9-2.3-8.6-2.3-14.1V66.1
		c0-5.5,0.8-10.2,2.3-14.1c1.5-3.9,4-6.8,7.5-8.9C73.5,41,78.2,40,84.2,40c6,0,10.8,1,14.3,3.1c3.5,2.1,6,5,7.5,8.9
		c1.5,3.9,2.3,8.6,2.3,14.1v29.6c0,5.5-0.8,10.1-2.3,14.1c-1.5,3.9-4,7-7.5,9.1C95,121,90.2,122,84.2,122z M84.2,109.5
		c1.8,0,3.2-0.5,4-1.4c0.9-0.9,1.4-2.1,1.7-3.5c0.3-1.4,0.4-2.9,0.4-4.4V61.8c0-1.6-0.1-3.1-0.4-4.5c-0.3-1.4-0.8-2.6-1.7-3.5
		c-0.9-0.9-2.2-1.4-4-1.4c-1.7,0-3,0.5-3.8,1.4c-0.9,0.9-1.4,2.1-1.7,3.5c-0.3,1.4-0.4,2.9-0.4,4.5v38.4c0,1.5,0.1,3,0.3,4.4
		c0.2,1.4,0.8,2.6,1.6,3.5C81,109.1,82.3,109.5,84.2,109.5z"/>
	<path class="st0" d="M119,120.9V41.1h12.4l16.3,38.4V41.1h14.6v79.8h-11.9l-16.3-41.4v41.4H119z"/>
	<path class="st0" d="M181.5,120.9V54.2h-12V41.1h41.7v13.1h-11.9v66.7H181.5z"/>
	<path class="st0" d="M210.7,120.9l15.1-79.8h20.1l14.9,79.8h-16.2l-2.7-16.8h-11.7l-2.8,16.8H210.7z M230.5,34.8l6.2-19.8h16.3
		l-12.4,19.8H230.5z M231.7,93.5h8.5l-4.2-31.1L231.7,93.5z"/>
	<path class="st0" d="M290.4,122c-6,0-10.8-1.1-14.3-3.3c-3.5-2.2-6-5.3-7.4-9.3c-1.4-4-2.2-8.6-2.2-14V66.7
		c0-5.5,0.7-10.3,2.2-14.2c1.4-4,3.9-7,7.4-9.2c3.5-2.2,8.3-3.2,14.3-3.2c5.9,0,10.5,1,13.8,2.9c3.3,1.9,5.7,4.6,7,8.1
		c1.4,3.5,2.1,7.5,2.1,12v6.9h-17.2v-8c0-1.6-0.1-3.1-0.2-4.5c-0.2-1.4-0.6-2.6-1.4-3.6c-0.8-1-2.1-1.4-4-1.4
		c-1.8,0-3.2,0.5-4.1,1.5c-0.9,1-1.4,2.2-1.7,3.7c-0.2,1.5-0.3,3-0.3,4.7v37.5c0,1.8,0.1,3.4,0.4,4.9c0.3,1.5,0.9,2.7,1.8,3.5
		c0.9,0.9,2.2,1.3,3.9,1.3c1.8,0,3.2-0.5,3.9-1.4c0.8-1,1.3-2.2,1.5-3.7c0.2-1.5,0.3-3.1,0.3-4.6v-8.4h17.2v6.9
		c0,4.5-0.7,8.6-2,12.2c-1.3,3.6-3.7,6.4-7,8.5C301,121,296.3,122,290.4,122z"/>
	<path class="st0" d="M330.2,120.9V54.2h-12V41.1h41.7v13.1h-11.9v66.7H330.2z"/>
	<path class="st0" d="M359.4,120.9l15.1-79.8h20.1l14.9,79.8h-16.2l-2.7-16.8h-11.7l-2.8,16.8H359.4z M380.4,93.5h8.5l-4.2-31.1
		L380.4,93.5z"/>
	<path class="st0" d="M416.7,120.9V41.1h12.4l16.3,38.4V41.1H460v79.8h-11.9l-16.3-41.4v41.4H416.7z"/>
	<path class="st0" d="M494.8,122c-6,0-10.7-1.1-14.2-3.2c-3.5-2.1-6-5.1-7.5-9.1c-1.5-3.9-2.3-8.6-2.3-14.1V66.1
		c0-5.5,0.8-10.2,2.3-14.1c1.5-3.9,4-6.8,7.5-8.9c3.5-2.1,8.2-3.1,14.2-3.1c6,0,10.8,1,14.3,3.1c3.5,2.1,6,5,7.5,8.9
		c1.5,3.9,2.3,8.6,2.3,14.1v29.6c0,5.5-0.8,10.1-2.3,14.1c-1.5,3.9-4,7-7.5,9.1C505.6,121,500.8,122,494.8,122z M494.8,109.5
		c1.8,0,3.2-0.5,4-1.4c0.9-0.9,1.4-2.1,1.7-3.5c0.3-1.4,0.4-2.9,0.4-4.4V61.8c0-1.6-0.1-3.1-0.4-4.5c-0.3-1.4-0.8-2.6-1.7-3.5
		c-0.9-0.9-2.2-1.4-4-1.4c-1.7,0-3,0.5-3.8,1.4c-0.9,0.9-1.4,2.1-1.7,3.5c-0.3,1.4-0.4,2.9-0.4,4.5v38.4c0,1.5,0.1,3,0.3,4.4
		c0.2,1.4,0.8,2.6,1.6,3.5C491.6,109.1,493,109.5,494.8,109.5z"/>
	<path class="st0" d="M550.8,122c-5,0-9.2-0.9-12.5-2.7c-3.3-1.8-5.9-4.5-7.6-8.2c-1.7-3.7-2.7-8.5-2.9-14.4l15.1-2.3
		c0.1,3.4,0.4,6.2,0.9,8.3c0.6,2.1,1.3,3.6,2.4,4.5c1,0.9,2.2,1.4,3.7,1.4c1.8,0,3-0.6,3.6-1.9c0.6-1.2,0.8-2.6,0.8-3.9
		c0-3.3-0.8-6.1-2.4-8.3s-3.7-4.5-6.4-6.8l-6.9-6c-3-2.6-5.6-5.5-7.6-8.7c-2.1-3.2-3.1-7.3-3.1-12.1c0-6.8,2-11.9,6-15.5
		c4-3.6,9.5-5.4,16.3-5.4c4.3,0,7.7,0.7,10.3,2.2c2.6,1.4,4.6,3.3,5.9,5.7c1.3,2.3,2.3,4.8,2.8,7.4c0.5,2.6,0.8,5.1,0.8,7.4
		L555,64.5c-0.1-2.4-0.2-4.4-0.4-6.2c-0.2-1.7-0.7-3.1-1.4-4c-0.7-1-1.8-1.4-3.3-1.4c-1.6,0-2.8,0.7-3.6,2.1
		c-0.8,1.4-1.1,2.8-1.1,4.1c0,3,0.7,5.4,2.1,7.2c1.4,1.9,3.3,3.8,5.6,5.9l6.6,5.8c3.5,3,6.4,6.3,8.8,10c2.4,3.7,3.6,8.4,3.6,13.9
		c0,3.7-0.9,7.1-2.6,10.2c-1.7,3.1-4.1,5.5-7.2,7.2C558.8,121.1,555.1,122,550.8,122z"/>
	<path class="st0" d="M602.5,120.9v-15h15.2v15H602.5z M607.4,100.6l-4.6-59.3h16l-5.8,59.3H607.4z"/>
</g>
</svg>
