<svg xmlns="http://www.w3.org/2000/svg" viewBox="0 0 92.55 92.55"><defs><style>.cls-1{fill:#fff;}</style></defs><title>instagram</title><g id="Layer_2" data-name="Layer 2"><g id="Layer_1-2" data-name="Layer 1"><path class="cls-1" d="M64,0H28.52A28.52,28.52,0,0,0,0,28.52V64A28.51,28.51,0,0,0,28.52,92.55H64A28.5,28.5,0,0,0,92.55,64V28.52A28.51,28.51,0,0,0,64,0ZM83.67,60.63a23,23,0,0,1-23,23H31.93a23,23,0,0,1-23-23V31.92a23,23,0,0,1,23-23h28.7a23,23,0,0,1,23,23Z"/><path class="cls-1" d="M47.52,22.06A24.38,24.38,0,1,0,71.9,46.44,24.37,24.37,0,0,0,47.52,22.06Zm0,39A14.67,14.67,0,1,1,62.18,46.44,14.66,14.66,0,0,1,47.52,61.1Z"/><path class="cls-1" d="M76.41,21.68a6.2,6.2,0,1,1-6.2-6.2A6.21,6.21,0,0,1,76.41,21.68Z"/></g></g></svg>