<svg xmlns="http://www.w3.org/2000/svg" viewBox="0 0 283 283"><defs><style>.cls-1{fill:#494c55;}.cls-2{fill:#dfdf31;}</style></defs><g id="Layer_2" data-name="Layer 2"><g id="toExport"><g id="asesoria_copy" data-name="asesoria copy"><rect class="cls-1" width="283" height="283"/><g id="trasporte_copy" data-name="trasporte copy"><path class="cls-2" d="M102,167a24,24,0,1,0,24,24A24,24,0,0,0,102,167Zm0,35a11,11,0,1,1,11-11A11,11,0,0,1,102,202Z"/><path class="cls-2" d="M190,167a24,24,0,1,0,24,24A24,24,0,0,0,190,167Zm0,35a11,11,0,1,1,11-11A11,11,0,0,1,190,202Z"/><path class="cls-2" d="M138,178h19s6-1,2,6a15.39,15.39,0,0,0-2,8c0,5-3,4-6,4H138c-1,0-5,1-4-3a28.86,28.86,0,0,0,0-12C133.46,178.83,134,178,138,178Z"/><path class="cls-2" d="M60.23,191.35c.2-4.16-2-14,7-14s5,5,4,7a14.72,14.72,0,0,0-1,8c1.21,5.36-4.84,4.12-7,4C61.23,196.23,60.05,195,60.23,191.35Z"/><path class="cls-2" d="M232.16,191.35c-.2-4.16,2-14-7-14s-5,5-4,7a14.72,14.72,0,0,1,1,8c-1.2,5.36,4.84,4.12,7,4C231.16,196.23,232.34,195,232.16,191.35Z"/><path class="cls-2" d="M227.62,135.87c-9.08-.68-8.21-6.32-8.21-6.32s-.83-19.42-1.28-23.48,6.1-2.94,6.1-2.94,5-.68,5.19-4.74S224,94.32,224,94.32H185.39c-8.3,0-8.58,5-8.58,5l-6.55,62.32c-.89,6.57,2.94,4.29,3.84,3.39,3.55-3.56,7-7.19,19.06-6.32a31.47,31.47,0,0,1,20.09,9.5l10.75,0c10.39,0,9.49,1.13,11.29-15.36S236.69,136.55,227.62,135.87ZM201,132.26l-13.58-1.58s-6.32,1.58-4.06-9l2-18.74h23.49l1.58,23.49S212.54,135,201,132.26Z"/><path class="cls-2" d="M166.08,70.37H81.44a6.79,6.79,0,0,0-5,2.08c-3.22,3.48-.77,7.75,2.76,7.75H97.06a4.86,4.86,0,0,1,4.83,3.73,4.75,4.75,0,0,1-4.63,5.75H43.82A4.36,4.36,0,0,0,39.5,93a4.25,4.25,0,0,0,4.14,5.14h41.1a4.89,4.89,0,0,1,4.84,3.73,4.76,4.76,0,0,1-4.64,5.76H66A4.38,4.38,0,0,0,61.62,111a4.27,4.27,0,0,0,4.16,5.17H77.72c.13,0,.26,0,.39,0h41.42a4.86,4.86,0,0,1,4.83,3.73,4.75,4.75,0,0,1-4.63,5.75H52.31a3.89,3.89,0,0,0-3.88,3.88h0a3.88,3.88,0,0,0,3.88,3.87H93.9a4.88,4.88,0,0,1,4.83,3.73,4.76,4.76,0,0,1-4.64,5.76H73.46A5.75,5.75,0,0,0,67.73,148l-1.38,13.81a5.76,5.76,0,0,0,5.73,6.32h7.56a8.58,8.58,0,0,0,5.65-2.07,31.26,31.26,0,0,1,41,.56,5.64,5.64,0,0,0,3.84,1.51h27.56a5.56,5.56,0,0,0,5.53-5l8.61-86.47A5.75,5.75,0,0,0,166.08,70.37Z"/></g></g></g></g></svg>